<svg width="25" height="25" viewBox="0 0 25 25" fill="none" xmlns="http://www.w3.org/2000/svg">
<path d="M22.9168 7.8646C22.9168 8.5521 22.3543 9.1146 21.6668 9.1146H3.3335C2.646 9.1146 2.0835 8.5521 2.0835 7.8646V7.85419C2.0835 5.46877 4.01058 3.54169 6.396 3.54169H18.5939C20.9793 3.54169 22.9168 5.47919 22.9168 7.8646Z" fill="#A7A9AC"/>
<path d="M2.0835 11.9271V17.1458C2.0835 19.5312 4.01058 21.4583 6.396 21.4583H18.5939C20.9793 21.4583 22.9168 19.5208 22.9168 17.1354V11.9271C22.9168 11.2396 22.3543 10.6771 21.6668 10.6771H3.3335C2.646 10.6771 2.0835 11.2396 2.0835 11.9271ZM8.3335 17.9687H6.25016C5.82308 17.9687 5.46891 17.6146 5.46891 17.1875C5.46891 16.7604 5.82308 16.4062 6.25016 16.4062H8.3335C8.76058 16.4062 9.11475 16.7604 9.11475 17.1875C9.11475 17.6146 8.76058 17.9687 8.3335 17.9687ZM15.1043 17.9687H10.9377C10.5106 17.9687 10.1564 17.6146 10.1564 17.1875C10.1564 16.7604 10.5106 16.4062 10.9377 16.4062H15.1043C15.5314 16.4062 15.8856 16.7604 15.8856 17.1875C15.8856 17.6146 15.5314 17.9687 15.1043 17.9687Z" fill="#A7A9AC"/>
</svg>
