<svg width="34" height="34" viewBox="0 0 34 34" fill="none" xmlns="http://www.w3.org/2000/svg">
<g clip-path="url(#clip0_69_2316)">
<path d="M17.0002 2.83337C9.19433 2.83337 2.8335 9.19421 2.8335 17C2.8335 24.8059 9.19433 31.1667 17.0002 31.1667C24.806 31.1667 31.1668 24.8059 31.1668 17C31.1668 9.19421 24.806 2.83337 17.0002 2.83337ZM15.9377 11.3334C15.9377 10.7525 16.4193 10.2709 17.0002 10.2709C17.581 10.2709 18.0627 10.7525 18.0627 11.3334V18.4167C18.0627 18.9975 17.581 19.4792 17.0002 19.4792C16.4193 19.4792 15.9377 18.9975 15.9377 18.4167V11.3334ZM18.3035 23.205C18.2327 23.3892 18.1335 23.5309 18.006 23.6725C17.8643 23.8 17.7085 23.8992 17.5385 23.97C17.3685 24.0409 17.1843 24.0834 17.0002 24.0834C16.816 24.0834 16.6318 24.0409 16.4618 23.97C16.2918 23.8992 16.136 23.8 15.9943 23.6725C15.8668 23.5309 15.7677 23.3892 15.6968 23.205C15.626 23.035 15.5835 22.8509 15.5835 22.6667C15.5835 22.4825 15.626 22.2984 15.6968 22.1284C15.7677 21.9584 15.8668 21.8025 15.9943 21.6609C16.136 21.5334 16.2918 21.4342 16.4618 21.3634C16.8018 21.2217 17.1985 21.2217 17.5385 21.3634C17.7085 21.4342 17.8643 21.5334 18.006 21.6609C18.1335 21.8025 18.2327 21.9584 18.3035 22.1284C18.3743 22.2984 18.4168 22.4825 18.4168 22.6667C18.4168 22.8509 18.3743 23.035 18.3035 23.205Z" fill="#A7A9AC"/>
</g>
<defs>
<clipPath id="clip0_69_2316">
<rect width="34" height="34" fill="white"/>
</clipPath>
</defs>
</svg>
