<svg width="25" height="25" viewBox="0 0 25 25" fill="none" xmlns="http://www.w3.org/2000/svg">
<path d="M20.6562 9.06252L15.9375 4.34377C14.9479 3.35419 13.5833 2.82294 12.1875 2.89585L6.97916 3.14585C4.89583 3.2396 3.23958 4.89585 3.13541 6.96877L2.88541 12.1771C2.82291 13.5729 3.34374 14.9375 4.33333 15.9271L9.05208 20.6459C10.9896 22.5834 14.1354 22.5834 16.0833 20.6459L20.6562 16.0729C22.6042 14.1459 22.6042 11 20.6562 9.06252ZM9.89583 12.8959C8.24999 12.8959 6.89583 11.5521 6.89583 9.89585C6.89583 8.2396 8.24999 6.89585 9.89583 6.89585C11.5417 6.89585 12.8958 8.2396 12.8958 9.89585C12.8958 11.5521 11.5417 12.8959 9.89583 12.8959ZM18.2604 14.0938L14.0937 18.2604C13.9375 18.4167 13.7396 18.4896 13.5417 18.4896C13.3437 18.4896 13.1458 18.4167 12.9896 18.2604C12.6875 17.9584 12.6875 17.4584 12.9896 17.1563L17.1562 12.9896C17.4583 12.6875 17.9583 12.6875 18.2604 12.9896C18.5625 13.2917 18.5625 13.7917 18.2604 14.0938Z" fill="white"/>
</svg>
