<svg width="25" height="25" viewBox="0 0 25 25" fill="none" xmlns="http://www.w3.org/2000/svg">
<path d="M20.8335 6.24998V6.49998H15.4897C12.396 6.49998 10.9585 7.93748 10.9585 11.0312V16.3541H10.1564V20.0521H10.9585V21.6146H5.15641C4.72933 21.6146 4.37516 21.2604 4.37516 20.8333C4.37516 20.4062 4.72933 20.0521 5.15641 20.0521H8.59391V16.3541H6.25016C2.98975 16.3541 2.11475 15.5521 2.0835 12.3958V6.24998C2.0835 2.91665 2.91683 2.08331 6.25016 2.08331H16.6668C20.0002 2.08331 20.8335 2.91665 20.8335 6.24998Z" fill="#A7A9AC"/>
<path d="M20.8335 8.11458C20.5731 8.08333 20.271 8.0625 19.9481 8.0625H15.4897C13.2606 8.0625 12.521 8.80208 12.521 11.0313V20.0521C12.5314 20.6979 12.6043 21.2083 12.7606 21.6146C13.1252 22.5625 13.9481 22.9167 15.4897 22.9167H19.9481C22.1772 22.9167 22.9168 22.1771 22.9168 19.9479V11.0313C22.9168 9.125 22.3752 8.3125 20.8335 8.11458ZM17.7189 10.5104C18.6252 10.5104 19.3543 11.2396 19.3543 12.1458C19.3543 13.0521 18.6252 13.7812 17.7189 13.7812C16.8127 13.7812 16.0835 13.0521 16.0835 12.1458C16.0835 11.2396 16.8127 10.5104 17.7189 10.5104ZM17.7189 19.9479C16.4897 19.9479 15.4897 18.9479 15.4897 17.7188C15.4897 17.2083 15.6668 16.7292 15.9585 16.3542C16.3647 15.8333 17.0002 15.4896 17.7189 15.4896C18.2814 15.4896 18.7918 15.6979 19.1772 16.0313C19.646 16.4479 19.9481 17.0521 19.9481 17.7188C19.9481 18.9479 18.9481 19.9479 17.7189 19.9479Z" fill="#A7A9AC"/>
<path d="M20.8335 8.11458C20.5731 8.08333 20.271 8.0625 19.9481 8.0625H15.4897C13.2606 8.0625 12.521 8.80208 12.521 11.0313V20.0521C12.5314 20.6979 12.6043 21.2083 12.7606 21.6146C13.1252 22.5625 13.9481 22.9167 15.4897 22.9167H19.9481C22.1772 22.9167 22.9168 22.1771 22.9168 19.9479V11.0313C22.9168 9.125 22.3752 8.3125 20.8335 8.11458ZM17.7189 10.5104C18.6252 10.5104 19.3543 11.2396 19.3543 12.1458C19.3543 13.0521 18.6252 13.7812 17.7189 13.7812C16.8127 13.7812 16.0835 13.0521 16.0835 12.1458C16.0835 11.2396 16.8127 10.5104 17.7189 10.5104ZM17.7189 19.9479C16.4897 19.9479 15.4897 18.9479 15.4897 17.7188C15.4897 17.2083 15.6668 16.7292 15.9585 16.3542C16.3647 15.8333 17.0002 15.4896 17.7189 15.4896C18.2814 15.4896 18.7918 15.6979 19.1772 16.0313C19.646 16.4479 19.9481 17.0521 19.9481 17.7188C19.9481 18.9479 18.9481 19.9479 17.7189 19.9479Z" fill="#A7A9AC"/>
</svg>
