<svg width="123" height="187" viewBox="0 0 123 187" fill="none" xmlns="http://www.w3.org/2000/svg">
<g opacity="0.04">
<path d="M119.688 1.44968C120.517 2.45027 120.612 3.65311 119.975 5.0582C119.55 5.97363 118.839 6.47393 117.84 6.55909C108.792 7.3255 98.7883 7.3255 90.5684 10.4869C61.661 21.5573 48.0674 43.7513 49.7879 77.0689C50.0003 80.9861 49.7772 84.4669 49.1188 87.5113C48.9435 88.3063 48.4907 89.0124 47.842 89.5024C47.1933 89.9925 46.3913 90.2342 45.5805 90.1842C44.7698 90.1341 44.0035 89.7955 43.4197 89.2293C42.8359 88.6632 42.473 87.9067 42.3964 87.0961C37.8404 38.3013 62.5318 -1.52016 115.77 0.0445924C117.639 0.10846 118.945 0.576818 119.688 1.44968Z" fill="white"/>
<path d="M117.267 14.0637C117.823 14.082 118.366 14.2313 118.854 14.4997C119.341 14.7681 119.759 15.148 120.072 15.6084C120.386 16.0689 120.587 16.5969 120.658 17.1497C120.73 17.7025 120.67 18.2645 120.485 18.7899C119.614 21.2382 117.639 22.4197 114.559 22.3346C76.2633 21.3446 63.2008 46.253 64.3796 80.0709C64.4645 82.1998 64.0504 83.722 63.137 84.6374C61.9901 85.787 60.5564 86.0744 58.836 85.4996C57.7952 85.159 57.2642 84.4352 57.243 83.3281C57.1155 72.1832 56.0004 60.3358 59.8555 50.0851C69.1586 25.2193 88.2957 13.2122 117.267 14.0637Z" fill="white"/>
<path d="M74.6691 58.7069C73.9687 58.3815 73.422 57.7945 73.143 57.0686C72.864 56.3427 72.8743 55.5339 73.1717 54.811C81.3915 35.4591 96.27 26.9115 117.807 29.1681C118.653 29.2524 119.44 29.6419 120.021 30.2642C120.601 30.8866 120.936 31.6993 120.964 32.5509C120.991 33.4026 120.709 34.2352 120.169 34.8936C119.629 35.5519 118.869 35.9913 118.03 36.1297C110.766 37.3751 103.088 36.002 96.8754 39.0996C89.0804 42.9742 83.3881 49.0948 79.7985 57.4615C78.9277 59.4627 77.2179 59.8778 74.6691 58.7069Z" fill="white"/>
<path d="M51.4144 150.006C52.0609 150.359 52.5716 150.918 52.8658 151.595C53.1601 152.271 53.2211 153.027 53.0392 153.742C52.6144 155.403 51.5312 156.35 49.7895 156.584C48.6638 156.712 47.4213 156.414 46.0619 155.69C32.8401 148.696 28.762 138.478 28.6346 123.022C28.4434 96.0909 28.4434 69.3197 28.6346 42.7082C28.6336 41.8459 28.9641 41.0164 29.5574 40.3919C30.1507 39.7675 30.9612 39.3962 31.8206 39.3551C32.9463 39.3126 33.9339 39.7809 34.7835 40.7602C35.3782 41.4415 35.6756 42.3995 35.6756 43.6343C35.7181 68.7768 35.7287 93.93 35.7075 119.094C35.7075 134.614 38.1288 142.725 51.4144 150.006Z" fill="white"/>
<path d="M85.2152 112.899C84.8329 82.9446 76.0077 38.1415 117.457 43.1232C117.998 43.1916 118.513 43.3872 118.956 43.6931C119.4 43.999 119.761 44.4061 120.006 44.8795C121.62 47.9026 120.75 49.7654 117.394 50.4679C116.502 50.6595 115.142 50.6808 113.316 50.5318C83.3992 47.8174 92.2562 94.6004 92.2562 112.579C92.2569 112.949 92.1819 113.316 92.036 113.656C91.89 113.996 91.6762 114.303 91.4076 114.557C91.139 114.812 90.8214 115.008 90.4742 115.135C90.127 115.261 89.7577 115.315 89.3889 115.294L87.4454 115.198C85.9799 115.134 85.2365 114.367 85.2152 112.899Z" fill="white"/>
<path d="M61.8628 166.1C62.1758 166.137 62.4768 166.243 62.7441 166.41C63.0115 166.577 63.2386 166.802 63.4092 167.067C63.5797 167.333 63.6895 167.633 63.7306 167.946C63.7717 168.259 63.7431 168.578 63.6469 168.878L62.8504 171.465C62.4681 172.7 61.6292 173.264 60.3335 173.158C25.0647 170.06 14.3598 147.451 14.2324 115.198C14.1686 94.7814 14.1686 74.3331 14.2324 53.8529C14.2326 53.226 14.3595 52.6037 14.6057 52.0224C14.8519 51.4412 15.2124 50.9127 15.666 50.468C17.7051 48.4242 19.5529 48.5945 21.2096 50.9789C21.8256 51.8943 22.1336 52.9056 22.1336 54.0126C22.1761 75.5573 22.1867 97.1126 22.1655 118.679C22.1336 146.716 32.4562 162.747 61.8628 166.1Z" fill="white"/>
<path d="M110.004 65.2535H109.112C107.668 65.2535 106.924 65.9774 106.882 67.425C106.372 86.7556 105.99 106.118 105.735 125.513C105.416 148.824 94.3505 164.121 72.5371 171.401C71.9257 171.602 71.2771 171.668 70.6344 171.597C69.9917 171.525 69.3696 171.317 68.8095 170.986C66.5369 169.645 66.1015 167.953 67.5033 165.909C68.0343 165.142 68.7458 164.632 69.6379 164.376C109.112 152.465 98.6303 104.468 98.694 73.5563C98.7578 52.4161 120.168 54.2683 120.104 68.3511C120.04 92.2695 123.831 126.439 116.281 147.387C107.7 171.252 89.2529 184.452 60.9402 186.985C60.1522 187.059 59.3632 186.854 58.7111 186.404C58.0589 185.955 57.5849 185.29 57.3719 184.526C56.5435 181.695 57.1064 180.205 59.0604 180.056C121.251 174.818 114.974 118.072 112.203 67.3292C112.118 65.9454 111.385 65.2535 110.004 65.2535Z" fill="white"/>
<path d="M74.9254 63.3696H74.6068C72.5129 63.3696 70.8154 65.0709 70.8154 67.1697V86.0106C70.8154 88.1094 72.5129 89.8107 74.6068 89.8107H74.9254C77.0192 89.8107 78.7167 88.1094 78.7167 86.0106V67.1697C78.7167 65.0709 77.0192 63.3696 74.9254 63.3696Z" fill="white"/>
<path d="M50.8391 178.97C51.1925 179.074 51.4908 179.313 51.6697 179.635C51.8485 179.958 51.8935 180.338 51.7949 180.694L50.9665 183.856C50.5417 185.473 49.5222 186.059 47.908 185.612C-8.70692 170.347 0.404969 118.232 0.723568 73.3646C0.723568 71.8531 1.4776 71.0973 2.98564 71.0973H5.62998C7.09554 71.0973 7.82832 71.8424 7.82832 73.3326C7.7646 115.517 -2.23938 163.322 50.8391 178.97Z" fill="white"/>
<path d="M60.3655 96.2291C62.4594 96.2291 64.1568 94.5278 64.1568 92.429C64.1568 90.3303 62.4594 88.6289 60.3655 88.6289C58.2716 88.6289 56.5742 90.3303 56.5742 92.429C56.5742 94.5278 58.2716 96.2291 60.3655 96.2291Z" fill="white"/>
<path d="M47.4322 93.5143C48.5791 93.5569 49.1738 94.153 49.2163 95.3026L50.2677 128.386C50.3102 129.216 50.4695 130.025 50.7456 130.813L52.1156 134.645C52.3576 135.333 52.3735 136.081 52.1611 136.778C51.9488 137.476 51.5192 138.087 50.9352 138.523C50.3513 138.958 49.6437 139.195 48.9159 139.198C48.1881 139.201 47.4784 138.971 46.8906 138.541C39.3716 132.889 42.0479 104.947 42.1116 95.7816C42.1116 94.1849 42.8975 93.4079 44.4692 93.4505L47.4322 93.5143Z" fill="white"/>
<path d="M75.3292 93.1397L74.8833 93.1296C72.8427 93.0832 71.1509 94.7036 71.1046 96.7489L70.7201 113.733C70.6738 115.779 72.2905 117.474 74.331 117.521L74.777 117.531C76.8175 117.577 78.5093 115.957 78.5556 113.912L78.9401 96.9271C78.9864 94.8818 77.3698 93.1861 75.3292 93.1397Z" fill="white"/>
<path d="M90.5364 119.029C91.0759 119.169 91.5549 119.482 91.9002 119.92C92.2454 120.358 92.4378 120.898 92.448 121.456C92.8728 144.811 81.5838 157.361 58.581 159.106C57.7654 159.173 56.9507 158.967 56.2647 158.52C55.5787 158.072 55.0601 157.41 54.7905 156.635C54.5208 155.861 54.5151 155.018 54.7745 154.24C55.0338 153.462 55.5434 152.793 56.2234 152.336C58.0288 151.123 60.0572 150.75 62.3086 151.219C63.3919 151.453 64.4645 151.4 65.5265 151.059C78.6527 146.822 85.1734 137.732 85.0884 123.788C85.0884 121.872 85.3858 120.573 85.9805 119.892C86.9575 118.763 88.4762 118.476 90.5364 119.029Z" fill="white"/>
<path d="M74.001 121.233C75.8277 121.212 77.1764 121.797 78.0472 122.989C78.6844 123.883 78.9075 125.203 78.7163 126.949C77.2507 139.744 69.7212 145.694 56.1277 144.8C55.5558 144.76 55.0205 144.503 54.6302 144.082C54.2398 143.661 54.0235 143.107 54.0249 142.533V139.371C54.0235 139.115 54.076 138.862 54.179 138.627C54.282 138.393 54.4331 138.183 54.6225 138.011C54.812 137.84 55.0354 137.71 55.2783 137.631C55.5212 137.551 55.7781 137.524 56.0321 137.551C66.121 138.743 71.1018 134.358 70.9744 124.394C70.9659 123.988 71.0375 123.583 71.185 123.204C71.3326 122.825 71.5532 122.479 71.8343 122.185C72.1153 121.892 72.4513 121.656 72.8231 121.493C73.1949 121.33 73.5952 121.241 74.001 121.233Z" fill="white"/>
</g>
</svg>
