<svg width="289" height="163" viewBox="0 0 289 163" fill="none" xmlns="http://www.w3.org/2000/svg">
<path d="M108.246 40.6119C108.485 40.9004 108.513 41.2473 108.329 41.6525C108.206 41.9165 108.001 42.0608 107.712 42.0853C105.098 42.3063 102.208 42.3063 99.8337 43.218C91.4828 46.4105 87.5558 52.8108 88.0528 62.4189C88.1142 63.5485 88.0498 64.5523 87.8595 65.4302C87.8089 65.6595 87.6781 65.8631 87.4907 66.0044C87.3033 66.1458 87.0716 66.2155 86.8374 66.201C86.6032 66.1866 86.3818 66.089 86.2132 65.9257C86.0445 65.7624 85.9397 65.5443 85.9175 65.3105C84.6014 51.2391 91.7343 39.7554 107.114 40.2067C107.654 40.2251 108.031 40.3602 108.246 40.6119Z" fill="#99CA3C"/>
<path d="M107.546 44.2494C107.707 44.2547 107.864 44.2978 108.005 44.3752C108.146 44.4526 108.266 44.5621 108.357 44.6949C108.447 44.8277 108.505 44.98 108.526 45.1394C108.547 45.2988 108.53 45.4608 108.476 45.6124C108.224 46.3184 107.654 46.6591 106.764 46.6346C95.7011 46.3491 91.9275 53.5322 92.2681 63.2845C92.2926 63.8985 92.173 64.3374 91.9091 64.6014C91.5778 64.9329 91.1636 65.0158 90.6666 64.8501C90.366 64.7518 90.2126 64.5431 90.2064 64.2238C90.1696 61.0099 89.8475 57.5933 90.9611 54.6372C93.6487 47.4665 99.1771 44.0039 107.546 44.2494Z" fill="#99CA3C"/>
<path d="M164.575 48.3567L164.52 48.3566C163.91 48.3556 163.415 48.8495 163.414 49.4598L163.396 59.6266C163.395 60.2369 163.888 60.7325 164.498 60.7336L164.554 60.7337C165.164 60.7347 165.659 60.2408 165.66 59.6305L165.678 49.4637C165.679 48.8534 165.185 48.3578 164.575 48.3567Z" fill="#99CA3C"/>
<path d="M154.045 88.2778C158.094 93.6099 166.801 91.3445 166.81 84.3088C166.829 72.5642 166.835 60.9086 166.829 49.342C166.829 49.1115 166.909 48.8885 167.056 48.7119C167.202 48.5352 167.405 48.416 167.629 48.3751C168.096 48.2891 168.479 48.3843 168.78 48.6606C169.001 48.8632 169.111 49.1916 169.111 49.6459C169.117 60.1565 169.12 70.6671 169.12 81.1777C169.12 84.3579 168.795 86.6785 168.145 88.1397C164.85 95.5254 154.256 95.0925 151.247 87.5872C150.762 86.3716 150.51 84.542 150.492 82.0986C150.418 70.7254 148.633 60.3192 164.942 62.0781C165.341 62.1211 165.513 62.3421 165.457 62.7412L165.365 63.4319C165.31 63.8248 165.086 64.0182 164.693 64.012C158.352 63.9107 152.83 63.9936 152.802 71.9594C152.784 75.818 151.817 85.3586 154.045 88.2778Z" fill="#99CA3C"/>
<path d="M95.2409 57.1237C95.0386 57.0298 94.8807 56.8606 94.8001 56.6512C94.7195 56.4419 94.7224 56.2086 94.8084 56.0002C97.183 50.4195 101.481 47.9545 107.703 48.6053C107.947 48.6296 108.175 48.7419 108.342 48.9214C108.51 49.1009 108.607 49.3352 108.615 49.5808C108.623 49.8264 108.541 50.0665 108.385 50.2564C108.229 50.4463 108.01 50.5729 107.767 50.6129C105.669 50.972 103.451 50.576 101.656 51.4693C99.4041 52.5867 97.7597 54.3517 96.7228 56.7645C96.4712 57.3416 95.9773 57.4613 95.2409 57.1237Z" fill="#99CA3C"/>
<path d="M88.5225 83.4523C88.7093 83.5542 88.8568 83.7154 88.9419 83.9105C89.0269 84.1057 89.0445 84.3235 88.9919 84.5298C88.8692 85.0087 88.5563 85.2819 88.0531 85.3494C87.7279 85.3862 87.369 85.3003 86.9763 85.0915C83.1567 83.0748 81.9786 80.1279 81.9418 75.6707C81.8866 67.9044 81.8866 60.1842 81.9418 52.51C81.9415 52.2613 82.037 52.0221 82.2084 51.842C82.3798 51.6619 82.6139 51.5548 82.8622 51.543C83.1874 51.5307 83.4727 51.6658 83.7181 51.9482C83.89 52.1447 83.9759 52.4209 83.9759 52.777C83.9881 60.0276 83.9912 67.2813 83.9851 74.538C83.9851 79.0136 84.6845 81.3527 88.5225 83.4523Z" fill="#99CA3C"/>
<path d="M98.2874 72.7514C98.1769 64.1133 95.6275 51.193 107.602 52.6296C107.758 52.6494 107.906 52.7058 108.035 52.794C108.163 52.8822 108.267 52.9996 108.338 53.1361C108.804 54.0079 108.553 54.5451 107.583 54.7477C107.326 54.803 106.933 54.8091 106.405 54.7661C97.7628 53.9834 100.321 67.4746 100.321 72.6593C100.322 72.7661 100.3 72.8718 100.258 72.9699C100.216 73.068 100.154 73.1564 100.076 73.2297C99.9987 73.3031 99.9069 73.3597 99.8066 73.3962C99.7063 73.4328 99.5996 73.4484 99.4931 73.4421L98.9316 73.4145C98.5083 73.396 98.2935 73.175 98.2874 72.7514Z" fill="#99CA3C"/>
<path d="M91.5411 88.0937C91.6315 88.1043 91.7185 88.1348 91.7957 88.183C91.8729 88.2312 91.9385 88.2959 91.9878 88.3725C92.0371 88.4491 92.0688 88.5357 92.0807 88.626C92.0926 88.7163 92.0843 88.8081 92.0565 88.8949L91.8264 89.6408C91.716 89.9969 91.4736 90.1596 91.0993 90.1289C80.9107 89.2356 77.8182 82.7156 77.7814 73.4145C77.763 67.5268 77.763 61.63 77.7814 55.7239C77.7814 55.5431 77.8181 55.3637 77.8892 55.196C77.9604 55.0284 78.0645 54.876 78.1956 54.7478C78.7846 54.1584 79.3184 54.2075 79.797 54.8951C79.975 55.1591 80.0639 55.4507 80.0639 55.77C80.0762 61.983 80.0793 68.1991 80.0731 74.4183C80.0639 82.5038 83.046 87.1267 91.5411 88.0937Z" fill="#99CA3C"/>
<path d="M105.448 59.0115H105.191C104.773 59.0115 104.559 59.2203 104.546 59.6377C104.399 65.2123 104.289 70.796 104.215 76.389C104.123 83.1116 100.926 87.5227 94.6246 89.6224C94.448 89.6801 94.2606 89.6993 94.0749 89.6787C93.8892 89.6581 93.7095 89.598 93.5478 89.5027C92.8912 89.1159 92.7654 88.6278 93.1704 88.0384C93.3238 87.8174 93.5293 87.6701 93.7871 87.5964C105.191 84.1614 102.163 70.3202 102.181 61.4059C102.199 55.3095 108.384 55.8436 108.366 59.9048C108.347 66.8024 109.443 76.6561 107.261 82.6972C104.783 89.5794 99.4535 93.3858 91.2744 94.1164C91.0468 94.1378 90.8189 94.0785 90.6305 93.9489C90.4421 93.8193 90.3051 93.6276 90.2436 93.4073C90.0043 92.5908 90.1669 92.161 90.7314 92.118C108.697 90.6077 106.884 74.2433 106.083 59.6101C106.059 59.2111 105.847 59.0115 105.448 59.0115Z" fill="#99CA3C"/>
<path d="M95.3147 58.4682H95.2227C94.6178 58.4682 94.1274 58.9588 94.1274 59.5641V64.9974C94.1274 65.6026 94.6178 66.0933 95.2227 66.0933H95.3147C95.9196 66.0933 96.41 65.6026 96.41 64.9974V59.5641C96.41 58.9588 95.9196 58.4682 95.3147 58.4682Z" fill="#99CA3C"/>
<path d="M88.3566 91.8049C88.4586 91.8349 88.5448 91.9039 88.5965 91.9969C88.6482 92.09 88.6612 92.1996 88.6327 92.3022L88.3934 93.2139C88.2707 93.6805 87.9761 93.8493 87.5098 93.7204C71.1546 89.3185 73.7869 74.2893 73.8789 61.3506C73.8789 60.9147 74.0968 60.6968 74.5324 60.6968H75.2963C75.7197 60.6968 75.9314 60.9117 75.9314 61.3414C75.913 73.5065 73.023 87.2925 88.3566 91.8049Z" fill="#99CA3C"/>
<path d="M148.007 61.9676C148.119 61.9851 148.221 62.0419 148.295 62.128C148.37 62.214 148.411 62.3237 148.412 62.4373V63.2753C148.412 63.4642 148.336 63.6455 148.202 63.78C148.068 63.9144 147.885 63.9912 147.694 63.9936C140.183 64.0765 136.76 65.0434 136.704 73.4513C136.661 79.9283 136.658 86.347 136.695 92.7074C136.695 92.8185 136.671 92.9283 136.625 93.0294C136.579 93.1305 136.512 93.2207 136.428 93.2939C136.344 93.367 136.246 93.4216 136.14 93.4538C136.034 93.4861 135.922 93.4953 135.812 93.481L135.177 93.3981C134.778 93.3428 134.581 93.1157 134.588 92.7166C134.637 86.4606 134.63 80.2107 134.569 73.967C134.486 65.4118 138.508 60.5126 148.007 61.9676Z" fill="#99CA3C"/>
<path d="M129.961 84.7072C129.965 86.9982 129.059 89.1969 127.443 90.8196C125.827 92.4424 123.633 93.3563 121.343 93.3603L120.33 93.3621C119.197 93.364 118.074 93.1426 117.026 92.7103C115.977 92.278 115.025 91.6434 114.221 90.8427C113.418 90.042 112.781 89.0908 112.345 88.0436C111.909 86.9963 111.684 85.8735 111.682 84.7391L111.658 70.6677C111.654 68.3767 112.559 66.178 114.176 64.5553C115.792 62.9325 117.986 62.0186 120.276 62.0146L121.288 62.0128C122.422 62.0108 123.545 62.2323 124.593 62.6646C125.641 63.0968 126.594 63.7315 127.397 64.5322C128.2 65.3329 128.838 66.284 129.274 67.3313C129.709 68.3786 129.935 69.5014 129.937 70.6358L129.961 84.7072ZM127.866 70.7592C127.864 69.8861 127.691 69.0218 127.356 68.2157C127.02 67.4096 126.53 66.6774 125.911 66.0611C125.293 65.4448 124.56 64.9563 123.753 64.6236C122.946 64.2908 122.082 64.1204 121.209 64.1219L120.473 64.1232C119.6 64.1247 118.736 64.2982 117.931 64.6337C117.125 64.9693 116.393 65.4603 115.777 66.0788C115.161 66.6973 114.673 67.4311 114.341 68.2384C114.008 69.0457 113.838 69.9105 113.839 70.7837L113.863 84.4868C113.865 85.3599 114.038 86.2242 114.374 87.0303C114.709 87.8364 115.2 88.5685 115.818 89.1849C116.436 89.8012 117.169 90.2897 117.976 90.6224C118.783 90.9551 119.647 91.1256 120.52 91.1241L121.256 91.1228C122.129 91.1213 122.993 90.9478 123.798 90.6122C124.604 90.2767 125.336 89.7856 125.952 89.1672C126.568 88.5487 127.056 87.8148 127.388 87.0076C127.721 86.2003 127.891 85.3354 127.89 84.4623L127.866 70.7592Z" fill="#99CA3C"/>
<path d="M190.97 83.4247C190.933 94.4663 177.063 97.404 173.198 87.5319C171.955 84.364 172.047 70.8083 173.317 67.622C176.198 60.3745 184.086 61.9308 190.133 61.9308C190.355 61.9308 190.568 62.0191 190.725 62.1762C190.882 62.3334 190.97 62.5466 190.97 62.7688C190.989 69.5712 190.989 76.4565 190.97 83.4247ZM175.471 87.2004C178.066 92.2746 185.034 92.6798 187.887 87.9187C190.105 84.1983 188.927 69.5835 188.89 64.7764C188.89 64.5753 188.811 64.3822 188.67 64.2391C188.528 64.0961 188.336 64.0145 188.135 64.012C181.628 63.9292 174.873 63.2845 174.863 72.0423C174.863 75.4681 174.063 84.4469 175.471 87.2004Z" fill="#99CA3C"/>
<path d="M209.967 64.1133C215.305 68.9204 213.289 85.1468 213.179 92.0904C213.161 93.0113 212.792 93.4779 212.075 93.4902C211.934 93.4926 211.794 93.4668 211.664 93.4142C211.533 93.3616 211.414 93.2833 211.314 93.1839C211.214 93.0844 211.134 92.9658 211.08 92.835C211.026 92.7042 210.998 92.5638 210.998 92.4219C210.998 87.4122 212.268 70.9648 209.847 67.2812C206.838 62.7043 200.064 62.9898 197.661 67.843C197.066 69.0524 196.762 71.0354 196.75 73.792C196.726 80.1094 196.723 86.3654 196.741 92.56C196.741 92.9468 196.563 93.217 196.207 93.3704C195.673 93.6099 195.253 93.5485 194.946 93.1863C194.768 92.9714 194.679 92.6368 194.679 92.1825C194.655 86.1352 194.649 80.0879 194.661 74.0407C194.673 70.4983 195.121 67.9259 196.005 66.3235C198.591 61.6269 205.724 60.2916 209.967 64.1133Z" fill="#99CA3C"/>
<path d="M147.822 65.4118C147.937 65.4378 148.043 65.4906 148.132 65.5659C148.222 65.6411 148.293 65.7367 148.338 65.8446C148.596 66.4647 148.5 66.9252 148.053 67.226C146.359 68.3495 140.146 66.038 140.137 70.6794C140.131 78.1019 140.125 85.3923 140.119 92.5508C140.118 92.7202 140.076 92.887 139.996 93.0362C139.916 93.1854 139.801 93.3123 139.66 93.4054C139.519 93.4986 139.358 93.5551 139.191 93.5699C139.024 93.5847 138.855 93.5573 138.701 93.4902C138.548 93.4226 138.389 93.263 138.223 93.0113C138.112 92.8394 138.057 92.6368 138.057 92.4035C138.076 85.9879 138.066 79.5753 138.03 73.1658C137.993 66.876 141.315 63.9752 147.822 65.4118Z" fill="#99CA3C"/>
<path d="M164.656 65.4026C164.932 65.4482 165.183 65.5905 165.365 65.8044C165.547 66.0184 165.648 66.2903 165.65 66.5722C165.687 72.6133 165.687 78.6606 165.65 84.714C165.614 91.234 154.182 92.5969 154.173 83.6089C154.167 79.0658 154.161 74.5226 154.155 69.9795C154.146 65.1448 161.242 64.8224 164.656 65.4026ZM156.253 84.0049C156.281 89.2264 163.497 89.4566 163.386 82.8445C163.3 77.9576 163.325 73.083 163.46 68.2206C163.466 67.9627 163.349 67.7939 163.11 67.7141C159.337 66.4524 156.207 67.8062 156.216 72.0331C156.229 76.0728 156.241 80.0634 156.253 84.0049Z" fill="#99CA3C"/>
<path d="M186.617 65.3565C186.949 65.4021 187.251 65.5699 187.466 65.8271C187.68 66.0844 187.791 66.4124 187.776 66.7471C187.602 70.8636 188.494 84.8521 186.58 87.6608C184.417 90.8287 178.849 90.6814 176.99 87.4582C175.011 84.0233 176.088 74.9616 176.244 70.928C176.474 64.9974 182.033 64.7487 186.617 65.3565ZM178.499 85.552C179.189 88.3607 183.782 88.3976 184.942 86.1598C186.387 83.4063 185.448 71.9502 185.549 68.2206C185.555 67.9688 185.439 67.8 185.199 67.7141C175.627 64.4356 178.011 78.3873 178.315 82.9274C178.419 84.6034 178.481 85.4783 178.499 85.552Z" fill="#99CA3C"/>
<path d="M126.574 84.5013C126.575 85.2197 126.435 85.9312 126.161 86.5954C125.888 87.2595 125.486 87.8633 124.979 88.3721C124.472 88.881 123.87 89.2849 123.208 89.561C122.545 89.8371 121.834 89.9798 121.116 89.9811L120.564 89.982C119.846 89.9832 119.135 89.843 118.471 89.5693C117.807 89.2955 117.204 88.8936 116.695 88.3866C116.187 87.8795 115.783 87.2772 115.507 86.614C115.231 85.9508 115.088 85.2397 115.087 84.5214L115.063 70.8736C115.062 70.1552 115.202 69.4437 115.476 68.7795C115.75 68.1154 116.151 67.5116 116.658 67.0028C117.165 66.4939 117.767 66.09 118.43 65.8139C119.092 65.5378 119.803 65.3951 120.521 65.3938L121.073 65.3929C121.791 65.3917 122.502 65.5319 123.166 65.8056C123.83 66.0794 124.433 66.4813 124.942 66.9883C125.45 67.4954 125.854 68.0977 126.13 68.7609C126.406 69.4241 126.549 70.1352 126.55 70.8535L126.574 84.5013ZM124.502 71.0266C124.503 70.5634 124.413 70.1046 124.236 69.6763C124.06 69.2481 123.801 68.8588 123.474 68.5307C123.148 68.2026 122.759 67.9422 122.332 67.7642C121.905 67.5862 121.446 67.4941 120.983 67.4933L120.689 67.4928C120.226 67.492 119.767 67.5824 119.339 67.7589C118.912 67.9354 118.522 68.1945 118.195 68.5215C117.867 68.8484 117.606 69.2368 117.428 69.6644C117.251 70.092 117.159 70.5505 117.158 71.0137L117.135 84.201C117.134 84.6642 117.224 85.123 117.401 85.5512C117.577 85.9795 117.836 86.3687 118.163 86.6968C118.49 87.0249 118.878 87.2854 119.305 87.4634C119.732 87.6414 120.191 87.7334 120.654 87.7342L120.948 87.7348C121.411 87.7356 121.87 87.6452 122.298 87.4687C122.726 87.2922 123.115 87.033 123.443 86.7061C123.77 86.3792 124.031 85.9908 124.209 85.5632C124.387 85.1356 124.479 84.6771 124.479 84.2139L124.502 71.0266Z" fill="#99CA3C"/>
<path d="M198.094 72.6777C198.075 62.8977 209.553 63.4963 209.589 70.7531C209.632 78.1326 209.638 85.4139 209.608 92.5969C209.605 92.7963 209.535 92.9889 209.41 93.1441C209.285 93.2993 209.112 93.4081 208.917 93.4533C208.445 93.5639 208.08 93.4687 207.822 93.1679C207.65 92.9653 207.561 92.646 207.555 92.2101C207.549 84.9595 207.543 77.7059 207.537 70.4492C207.537 66.6274 200.238 65.7157 200.211 72.3278C200.18 79.0934 200.171 85.8651 200.183 92.6429C200.183 93.0174 200.008 93.2692 199.658 93.3981L199.134 93.5915C199.019 93.6328 198.895 93.6458 198.774 93.6294C198.653 93.613 198.537 93.5677 198.437 93.4973C198.337 93.4269 198.255 93.3335 198.198 93.2249C198.142 93.1162 198.112 92.9956 198.112 92.8732C198.118 86.2549 198.112 79.5231 198.094 72.6777Z" fill="#99CA3C"/>
<path d="M91.1084 67.9443C91.7133 67.9443 92.2037 67.4536 92.2037 66.8484C92.2037 66.2432 91.7133 65.7525 91.1084 65.7525C90.5035 65.7525 90.0132 66.2432 90.0132 66.8484C90.0132 67.4536 90.5035 67.9443 91.1084 67.9443Z" fill="#99CA3C"/>
<path d="M87.372 67.1615C87.7034 67.1738 87.8752 67.3457 87.8874 67.6772L88.1912 77.2178C88.2034 77.4572 88.2495 77.6905 88.3292 77.9177L88.725 79.0228C88.7949 79.2212 88.7995 79.4367 88.7382 79.638C88.6768 79.8392 88.5527 80.0154 88.384 80.141C88.2153 80.2666 88.0109 80.3348 87.8006 80.3358C87.5904 80.3367 87.3854 80.2703 87.2156 80.1463C85.0435 78.5163 85.8166 70.4584 85.835 67.8154C85.835 67.3549 86.062 67.1308 86.5161 67.1431L87.372 67.1615Z" fill="#99CA3C"/>
<path d="M95.4315 67.0534L95.3027 67.0505C94.7132 67.0371 94.2245 67.5044 94.2111 68.0942L94.1 72.9922C94.0867 73.582 94.5537 74.071 95.1432 74.0844L95.272 74.0873C95.8615 74.1007 96.3502 73.6334 96.3636 73.0436L96.4747 68.1456C96.4881 67.5558 96.021 67.0668 95.4315 67.0534Z" fill="#99CA3C"/>
<path d="M99.8246 74.5195C99.9804 74.5598 100.119 74.65 100.219 74.7764C100.318 74.9028 100.374 75.0584 100.377 75.2194C100.5 81.9543 97.2383 85.5735 90.5932 86.0769C90.3575 86.0962 90.1222 86.0367 89.924 85.9077C89.7258 85.7787 89.576 85.5876 89.4981 85.3642C89.4202 85.1409 89.4186 84.898 89.4935 84.6737C89.5684 84.4493 89.7156 84.2562 89.9121 84.1246C90.4336 83.7746 91.0196 83.6672 91.67 83.8022C91.9829 83.8698 92.2928 83.8544 92.5996 83.7562C96.3916 82.5345 98.2753 79.913 98.2507 75.8917C98.2507 75.3391 98.3366 74.9646 98.5085 74.7682C98.7907 74.4428 99.2294 74.3599 99.8246 74.5195Z" fill="#99CA3C"/>
<path d="M95.0477 75.155C95.5753 75.1488 95.965 75.3177 96.2165 75.6615C96.4006 75.9193 96.465 76.3 96.4098 76.8034C95.9864 80.4932 93.8113 82.2091 89.8843 81.9512C89.7191 81.9396 89.5645 81.8656 89.4517 81.7442C89.3389 81.6228 89.2765 81.4631 89.2769 81.2974V80.3857C89.2765 80.3119 89.2916 80.2388 89.3214 80.1712C89.3511 80.1036 89.3948 80.0431 89.4495 79.9936C89.5042 79.944 89.5688 79.9066 89.6389 79.8837C89.7091 79.8608 89.7833 79.853 89.8567 79.8608C92.7712 80.2046 94.2101 78.9399 94.1733 76.0667C94.1709 75.9494 94.1915 75.8327 94.2342 75.7234C94.2768 75.6141 94.3405 75.5142 94.4217 75.4296C94.5029 75.3449 94.6 75.2771 94.7074 75.23C94.8148 75.1829 94.9304 75.1574 95.0477 75.155Z" fill="#99CA3C"/>
<path d="M104.62 102.626L104.491 102.856C104.411 103.015 104.46 103.098 104.638 103.104L106.258 103.169C106.406 103.17 106.546 103.23 106.648 103.335C106.75 103.441 106.805 103.583 106.801 103.731C106.797 103.878 106.735 104.02 106.628 104.123C106.521 104.227 106.378 104.284 106.23 104.283L102.641 104.302C102.538 104.302 102.437 104.268 102.355 104.206C102.273 104.143 102.213 104.056 102.186 103.956C102.159 103.856 102.165 103.75 102.204 103.655C102.243 103.559 102.312 103.479 102.401 103.427C102.972 103.083 103.303 102.592 103.396 101.953C103.422 101.778 103.509 101.618 103.642 101.502C103.776 101.386 103.946 101.32 104.123 101.318L106.332 101.29C106.42 101.29 106.505 101.322 106.571 101.38C106.638 101.439 106.68 101.52 106.69 101.608C106.7 101.695 106.678 101.784 106.627 101.856C106.576 101.928 106.5 101.979 106.414 101.999L105.015 102.322C104.837 102.365 104.706 102.466 104.62 102.626Z" fill="#99CA3C"/>
<path d="M96.619 101.485L95.4618 101.562C95.0611 101.588 94.7579 101.935 94.7845 102.336L94.8565 103.42C94.8831 103.821 95.2295 104.124 95.6302 104.098L96.7873 104.021C97.188 103.994 97.4912 103.648 97.4646 103.247L97.3927 102.163C97.366 101.762 97.0196 101.458 96.619 101.485Z" fill="#99CA3C"/>
<path d="M100.073 101.53C100.132 101.527 100.191 101.536 100.247 101.557C100.303 101.577 100.354 101.608 100.397 101.649C100.441 101.689 100.476 101.737 100.501 101.791C100.526 101.845 100.54 101.903 100.542 101.962L100.579 103.003C100.588 103.266 100.479 103.523 100.277 103.716C100.076 103.909 99.7969 104.024 99.5023 104.035L99.2814 104.044C98.9869 104.055 98.7005 103.961 98.4848 103.783C98.2692 103.606 98.1419 103.358 98.131 103.095L98.0941 102.055C98.0917 101.995 98.1009 101.936 98.1213 101.88C98.1417 101.825 98.1729 101.774 98.2131 101.73C98.2533 101.686 98.3017 101.651 98.3555 101.626C98.4093 101.601 98.4675 101.587 98.5267 101.585L100.073 101.53Z" fill="#99CA3C"/>
<path d="M152.708 101.484L151.587 101.542C151.196 101.563 150.896 101.897 150.916 102.288L150.973 103.373C150.993 103.764 151.327 104.064 151.718 104.044L152.839 103.985C153.23 103.964 153.53 103.631 153.51 103.24L153.453 102.155C153.432 101.763 153.099 101.463 152.708 101.484Z" fill="#99CA3C"/>
<path d="M156.713 103.556C156.715 103.616 156.704 103.676 156.682 103.733C156.66 103.789 156.627 103.84 156.585 103.884C156.543 103.928 156.493 103.963 156.438 103.987C156.382 104.011 156.323 104.024 156.262 104.025L155.563 104.044C155.386 104.048 155.21 104.024 155.045 103.973C154.88 103.922 154.73 103.845 154.602 103.747C154.475 103.649 154.373 103.531 154.302 103.4C154.232 103.269 154.194 103.128 154.192 102.985V102.635C154.186 102.347 154.321 102.069 154.568 101.86C154.815 101.651 155.152 101.529 155.508 101.52L156.207 101.502C156.268 101.501 156.328 101.512 156.384 101.534C156.44 101.556 156.492 101.588 156.535 101.63C156.579 101.672 156.614 101.722 156.638 101.778C156.662 101.833 156.675 101.893 156.677 101.953L156.713 103.556Z" fill="#99CA3C"/>
<path d="M212.397 115.463C212.188 116.408 212.028 117.345 211.918 118.272C211.844 118.855 211.679 119.257 211.421 119.478C211.059 119.779 210.651 119.803 210.197 119.552C209.866 119.368 209.731 119.091 209.792 118.723L210.326 115.509C210.393 115.073 210.209 114.861 209.773 114.874L208.641 114.901C208.552 114.903 208.464 114.924 208.382 114.962C208.301 114.999 208.228 115.053 208.168 115.12C208.108 115.188 208.061 115.266 208.032 115.352C208.003 115.438 207.991 115.529 207.997 115.619C208.065 116.768 207.963 117.894 207.693 118.999C207.624 119.248 207.463 119.461 207.243 119.596C207.023 119.731 206.759 119.777 206.506 119.726C206.254 119.674 206.029 119.529 205.879 119.319C205.729 119.109 205.663 118.85 205.696 118.594L206.184 115.518C206.196 115.44 206.191 115.36 206.169 115.283C206.147 115.207 206.109 115.136 206.058 115.076C206.006 115.016 205.942 114.967 205.87 114.934C205.798 114.901 205.72 114.883 205.641 114.883H204.794C204.66 114.883 204.527 114.847 204.409 114.78C204.291 114.712 204.192 114.614 204.122 114.496C203.822 113.993 203.883 113.511 204.306 113.05C204.355 112.996 204.416 112.955 204.484 112.929C204.553 112.903 204.628 112.894 204.702 112.903L205.669 112.995C206.049 113.038 206.304 112.878 206.432 112.516L206.856 111.383C206.889 111.293 206.898 111.195 206.879 111.101C206.861 111.006 206.818 110.919 206.753 110.847C206.688 110.776 206.605 110.724 206.513 110.697C206.421 110.669 206.323 110.668 206.23 110.693C205.218 110.963 204.592 110.616 204.352 109.652C204.331 109.556 204.328 109.458 204.346 109.361C204.363 109.265 204.4 109.174 204.453 109.094C204.507 109.013 204.576 108.945 204.657 108.894C204.738 108.843 204.829 108.809 204.923 108.796L206.368 108.584C206.687 108.536 206.974 108.366 207.17 108.11C207.366 107.854 207.454 107.532 207.417 107.212C207.276 106.008 207.583 105.005 208.338 104.2C208.462 104.067 208.626 103.978 208.805 103.945C208.984 103.912 209.168 103.938 209.332 104.019C209.495 104.099 209.628 104.23 209.711 104.392C209.794 104.554 209.822 104.739 209.792 104.919L209.249 108.123C209.188 108.516 209.353 108.725 209.746 108.75L210.721 108.805C210.81 108.81 210.898 108.797 210.981 108.767C211.064 108.737 211.14 108.69 211.204 108.63C211.269 108.57 211.32 108.497 211.356 108.416C211.392 108.336 211.411 108.248 211.412 108.16C211.436 106.932 211.611 105.803 211.936 104.771C212.016 104.525 212.186 104.319 212.411 104.193C212.637 104.067 212.902 104.032 213.153 104.093C213.404 104.155 213.622 104.31 213.763 104.526C213.905 104.743 213.959 105.005 213.915 105.259L213.418 108.05C213.396 108.171 213.406 108.296 213.448 108.412C213.49 108.528 213.562 108.631 213.657 108.71C213.753 108.79 213.867 108.843 213.99 108.864C214.113 108.886 214.24 108.875 214.357 108.832C214.836 108.661 215.179 108.786 215.388 109.21C215.535 109.517 215.52 109.821 215.342 110.122C215.004 110.686 214.437 110.88 213.639 110.702C213.222 110.61 212.986 110.776 212.93 111.199L212.783 112.295C212.71 112.835 212.943 113.084 213.483 113.041L214.247 112.976C214.541 112.952 214.722 113.087 214.79 113.382L214.928 113.971C215.063 114.579 214.82 114.883 214.201 114.883H213.114C212.722 114.883 212.482 115.076 212.397 115.463ZM208.706 112.599C208.694 112.656 208.7 112.716 208.726 112.768C208.751 112.82 208.792 112.861 208.844 112.884C210.602 113.732 211.412 111.742 210.409 110.702C210.303 110.593 210.171 110.515 210.024 110.476C209.878 110.438 209.724 110.44 209.579 110.483C209.434 110.525 209.303 110.607 209.201 110.719C209.099 110.83 209.03 110.968 209 111.116L208.706 112.599Z" fill="#99CA3C"/>
<path d="M115.968 116.246V105.674C115.968 105.524 116.019 105.378 116.112 105.26C116.206 105.141 116.336 105.057 116.483 105.02C117.698 104.731 118.321 105.023 118.352 105.895C118.499 110.241 120.791 122.72 111.394 118.972C111.081 118.849 110.771 118.855 110.464 118.99C108.709 119.788 106.979 119.751 105.273 118.879C105.009 118.751 104.752 118.757 104.5 118.898C102.948 119.77 101.395 119.773 99.843 118.907C99.5914 118.766 99.3337 118.76 99.0698 118.889C91.2466 122.646 92.7652 112.12 92.71 108.639C92.7089 108.486 92.6772 108.335 92.6168 108.194C92.5565 108.053 92.4688 107.927 92.3589 107.821C92.249 107.715 92.1191 107.633 91.9771 107.579C91.835 107.525 91.6836 107.5 91.5319 107.506L90.6576 107.534C90.1974 107.552 89.9673 107.795 89.9673 108.261V116.034C89.9673 116.95 89.6036 117.828 88.9564 118.476C88.3091 119.123 87.4312 119.487 86.5158 119.487H78.8675C77.9176 119.487 77.0059 119.113 76.3291 118.444C75.6523 117.776 75.2649 116.867 75.2504 115.914C75.1951 112.019 73.5937 103.611 80.8003 104.955C81.15 105.023 81.3034 105.232 81.2604 105.582L81.104 106.926C81.0841 107.084 81.0081 107.23 80.8898 107.336C80.7715 107.443 80.6188 107.503 80.4597 107.506L78.3612 107.534C77.9685 107.54 77.7722 107.74 77.7722 108.133V116.144C77.7722 116.359 77.8575 116.565 78.0094 116.717C78.1613 116.869 78.3673 116.955 78.5821 116.955H86.4974C86.7464 116.955 86.9852 116.856 87.1612 116.68C87.3373 116.504 87.4362 116.265 87.4362 116.015C87.427 113.704 86.7459 107.433 88.6511 105.886C90.4275 104.431 93.161 104.725 94.4403 106.567C95.8393 108.565 95.2687 113.667 95.2595 116.218C95.2533 116.605 95.4405 116.829 95.8209 116.89L97.1923 117.13C97.7445 117.228 98.0206 116.998 98.0206 116.439V105.637C98.0203 105.467 98.0851 105.304 98.2015 105.181C98.3179 105.057 98.4772 104.983 98.6465 104.974L99.9074 104.9C100.337 104.876 100.552 105.078 100.552 105.508V115.371C100.552 115.607 100.599 115.841 100.691 116.059C100.784 116.277 100.919 116.474 101.089 116.638C101.259 116.802 101.461 116.93 101.681 117.015C101.902 117.099 102.138 117.138 102.374 117.13C103.184 117.099 103.604 116.636 103.635 115.739C103.745 112.528 103.794 109.314 103.782 106.097C103.782 105.924 103.851 105.758 103.974 105.635C104.096 105.512 104.262 105.444 104.436 105.444H105.384C105.844 105.444 106.074 105.674 106.074 106.134V115.794C106.074 115.966 106.119 116.136 106.205 116.287C106.29 116.439 106.413 116.567 106.562 116.66C107.427 117.188 108.363 117.231 109.369 116.789C109.482 116.737 109.578 116.653 109.646 116.548C109.715 116.442 109.753 116.318 109.755 116.19V105.536C109.755 105.137 109.955 104.937 110.354 104.937H111.688C112.087 104.937 112.287 105.137 112.287 105.536V116.319C112.286 116.41 112.305 116.501 112.34 116.584C112.375 116.668 112.427 116.744 112.492 116.808C112.558 116.871 112.635 116.921 112.72 116.954C112.804 116.988 112.895 117.003 112.986 117.001L115.305 116.936C115.483 116.932 115.651 116.857 115.775 116.728C115.899 116.599 115.968 116.426 115.968 116.246Z" fill="#99CA3C"/>
<path d="M146.359 107.516L145.135 107.571C144.98 107.578 144.832 107.644 144.723 107.757C144.614 107.87 144.551 108.02 144.546 108.179L144.399 116.347C144.384 117.185 144.041 117.984 143.442 118.571C142.842 119.158 142.036 119.487 141.196 119.487H133.226C132.316 119.487 131.443 119.127 130.798 118.485C130.153 117.843 129.788 116.972 129.783 116.062C129.756 112.092 128.025 103.804 135.232 104.919C135.594 104.974 135.772 105.186 135.766 105.554L135.738 106.816C135.726 107.282 135.487 107.516 135.02 107.516H132.995C132.535 107.516 132.305 107.746 132.305 108.206V116.411C132.305 116.588 132.375 116.758 132.499 116.884C132.623 117.009 132.791 117.081 132.968 117.084L140.671 117.185C140.839 117.187 141.005 117.157 141.161 117.095C141.317 117.032 141.458 116.94 141.578 116.823C141.698 116.705 141.793 116.566 141.859 116.411C141.924 116.257 141.959 116.091 141.96 115.923C141.978 113.504 141.978 110.929 141.96 108.197C141.932 104.863 147.05 103.961 148.835 106.429C150.354 108.538 149.811 113.28 149.783 116.08C149.783 116.43 149.94 116.682 150.253 116.835C151.007 117.191 151.713 117.093 152.369 116.54C152.646 116.307 152.784 116.009 152.784 115.647V105.526C152.784 105.121 152.986 104.934 153.391 104.965L154.468 105.048C154.861 105.078 155.057 105.29 155.057 105.683L155.14 116.411C155.14 116.823 155.345 117.022 155.756 117.01L157.422 116.964C157.858 116.952 158.076 116.728 158.076 116.292V108.556C158.076 107.609 158.451 106.7 159.119 106.03C159.787 105.36 160.693 104.983 161.638 104.983H169.176C170.049 104.983 170.888 105.326 171.512 105.939C172.137 106.552 172.497 107.385 172.517 108.261L172.692 116.458C172.704 116.801 172.882 116.97 173.225 116.964L174.974 116.936C175.131 116.934 175.281 116.87 175.391 116.758C175.501 116.646 175.563 116.495 175.563 116.338V105.876C175.562 105.694 175.612 105.515 175.707 105.36C175.801 105.204 175.937 105.077 176.099 104.994C176.261 104.911 176.443 104.875 176.625 104.889C176.806 104.904 176.981 104.968 177.128 105.075C178.711 106.199 180.34 104.992 181.895 104.992C185.086 104.98 188.267 104.98 191.44 104.992C196.548 105.02 195.379 112.857 195.342 116.034C195.34 116.214 195.401 116.389 195.516 116.527C195.631 116.665 195.791 116.758 195.968 116.789L197.625 117.093C198.103 117.185 198.343 116.986 198.343 116.494V105.628C198.343 105.491 198.388 105.358 198.472 105.251C198.555 105.145 198.672 105.069 198.803 105.038C200.073 104.719 200.729 105.005 200.772 105.895C200.938 109.127 202.742 122.664 195.084 119.156C194.508 118.892 194.051 118.787 193.713 118.843C193.425 118.892 193.17 119.008 192.949 119.193C192.723 119.383 192.436 119.487 192.139 119.487H179.033C178.751 119.487 178.493 119.407 178.26 119.248C176.456 118.041 174.818 120.344 172.36 119.137C172.096 119.008 171.817 118.969 171.523 119.018C167.86 119.635 163.598 119.929 159.981 118.972C157.956 118.437 156.99 120.381 154.339 118.898C154.081 118.757 153.821 118.751 153.557 118.879C145.734 122.646 147.059 111.706 147.004 108.114C146.998 107.697 146.783 107.497 146.359 107.516ZM170.24 108.585C170.239 108.295 170.122 108.016 169.916 107.812C169.71 107.607 169.431 107.492 169.141 107.493L161.667 107.519C161.377 107.52 161.099 107.637 160.894 107.843C160.689 108.049 160.575 108.328 160.576 108.619L160.601 115.876C160.602 116.166 160.719 116.445 160.925 116.65C161.131 116.854 161.41 116.969 161.7 116.968L169.174 116.942C169.464 116.941 169.742 116.824 169.947 116.618C170.152 116.412 170.266 116.133 170.265 115.842L170.24 108.585ZM191.78 107.58C188.541 107.405 185.246 107.617 181.941 107.442C177.616 107.221 177.625 113.796 178.564 116.439C178.61 116.567 178.693 116.678 178.801 116.756C178.91 116.835 179.039 116.879 179.171 116.881L190.98 117.194C191.225 117.2 191.47 117.157 191.699 117.067C191.928 116.976 192.136 116.84 192.311 116.668C192.486 116.495 192.625 116.289 192.719 116.061C192.813 115.833 192.86 115.589 192.857 115.343L192.811 108.657C192.809 108.38 192.701 108.114 192.51 107.914C192.318 107.714 192.057 107.594 191.78 107.58Z" fill="#99CA3C"/>
<path d="M127.382 112.541L121.806 112.639C121.42 112.645 121.112 112.964 121.119 113.351L121.127 113.829C121.134 114.216 121.452 114.524 121.839 114.517L127.415 114.42C127.802 114.413 128.109 114.094 128.102 113.708L128.094 113.229C128.087 112.842 127.769 112.534 127.382 112.541Z" fill="#99CA3C"/>
<path d="M81.5965 120.705L80.5857 120.649C80.2051 120.628 79.8792 120.919 79.858 121.3L79.7953 122.422C79.774 122.803 80.0653 123.129 80.4459 123.15L81.4568 123.206C81.8374 123.228 82.1633 122.936 82.1845 122.555L82.2472 121.434C82.2685 121.053 81.9772 120.727 81.5965 120.705Z" fill="#99CA3C"/>
<path d="M84.8869 120.65L84.0777 120.685C83.6004 120.706 83.2303 121.11 83.2511 121.587L83.2856 122.379C83.3065 122.856 83.7104 123.227 84.1877 123.206L84.9969 123.17C85.4742 123.15 85.8443 122.745 85.8235 122.268L85.789 121.477C85.7681 120.999 85.3642 120.629 84.8869 120.65Z" fill="#99CA3C"/>
<path d="M110.455 122.683C110.458 122.803 110.413 122.92 110.33 123.008C110.248 123.096 110.134 123.148 110.014 123.152L109.019 123.189C108.876 123.194 108.734 123.174 108.6 123.132C108.467 123.09 108.345 123.026 108.241 122.944C108.138 122.862 108.055 122.763 107.997 122.653C107.94 122.544 107.909 122.425 107.906 122.305L107.887 121.624C107.882 121.383 107.99 121.149 108.188 120.973C108.386 120.797 108.659 120.693 108.946 120.684L109.94 120.648C110 120.646 110.06 120.657 110.117 120.679C110.173 120.701 110.224 120.734 110.268 120.776C110.312 120.818 110.347 120.868 110.371 120.923C110.395 120.979 110.408 121.038 110.409 121.099L110.455 122.683Z" fill="#99CA3C"/>
<path d="M113.477 120.701L112.264 120.635C111.918 120.616 111.624 120.881 111.605 121.226L111.536 122.495C111.517 122.841 111.782 123.136 112.127 123.155L113.34 123.22C113.686 123.239 113.98 122.974 113.999 122.629L114.068 121.36C114.087 121.015 113.822 120.719 113.477 120.701Z" fill="#99CA3C"/>
<path d="M117.757 120.686L116.764 120.632C116.343 120.609 115.983 120.932 115.96 121.354L115.906 122.347C115.884 122.768 116.207 123.129 116.628 123.151L117.62 123.205C118.042 123.228 118.402 122.905 118.425 122.483L118.478 121.49C118.501 121.069 118.178 120.708 117.757 120.686Z" fill="#99CA3C"/>
<path d="M136.474 120.952C136.696 121.078 136.871 121.274 136.972 121.509C137.073 121.743 137.095 122.005 137.034 122.253C136.974 122.501 136.835 122.723 136.638 122.885C136.44 123.048 136.196 123.141 135.94 123.152L135.057 123.18C134.794 123.187 134.536 123.111 134.32 122.961C134.104 122.811 133.941 122.596 133.856 122.347C133.77 122.098 133.767 121.828 133.846 121.577C133.924 121.326 134.081 121.107 134.293 120.952C134.937 120.491 135.664 120.491 136.474 120.952Z" fill="#99CA3C"/>
<path d="M139.434 120.692L138.532 120.695C138.095 120.697 137.741 121.053 137.743 121.49L137.746 122.374C137.748 122.811 138.103 123.165 138.54 123.163L139.442 123.16C139.879 123.159 140.233 122.803 140.231 122.365L140.228 121.481C140.226 121.044 139.871 120.691 139.434 120.692Z" fill="#99CA3C"/>
<path d="M200.049 120.61L199.019 120.651C198.602 120.668 198.278 121.019 198.295 121.436L198.336 122.466C198.353 122.883 198.704 123.207 199.121 123.191L200.151 123.149C200.567 123.132 200.891 122.781 200.875 122.364L200.833 121.334C200.816 120.917 200.465 120.593 200.049 120.61Z" fill="#99CA3C"/>
</svg>
