<svg width="17" height="17" viewBox="0 0 17 17" fill="none" xmlns="http://www.w3.org/2000/svg">
<path d="M11.4678 1.41666H5.53192C2.95359 1.41666 1.4165 2.95375 1.4165 5.53208V11.4608C1.4165 14.0462 2.95359 15.5833 5.53192 15.5833H11.4607C14.039 15.5833 15.5761 14.0462 15.5761 11.4679V5.53208C15.5832 2.95375 14.0461 1.41666 11.4678 1.41666ZM11.8857 6.87083L7.86942 10.8871C7.77025 10.9862 7.63567 11.0429 7.494 11.0429C7.35234 11.0429 7.21775 10.9862 7.11859 10.8871L5.114 8.8825C4.90859 8.67708 4.90859 8.33708 5.114 8.13166C5.31942 7.92625 5.65942 7.92625 5.86484 8.13166L7.494 9.76083L11.1348 6.12C11.3403 5.91458 11.6803 5.91458 11.8857 6.12C12.0911 6.32541 12.0911 6.65833 11.8857 6.87083Z" fill="#99CA3C"/>
</svg>
