<svg width="45" height="69" viewBox="0 0 45 69" fill="none" xmlns="http://www.w3.org/2000/svg">
<path d="M44.2406 0.534907C44.5468 0.904109 44.5821 1.34794 44.3465 1.86639C44.1895 2.20417 43.9265 2.38878 43.5575 2.4202C40.213 2.70299 36.5153 2.70299 33.477 3.86951C22.7919 7.95431 17.7673 16.1435 18.4032 28.4372C18.4817 29.8826 18.3993 31.1669 18.1559 32.2903C18.0911 32.5836 17.9237 32.8441 17.6839 33.0249C17.4441 33.2058 17.1477 33.295 16.848 33.2765C16.5483 33.258 16.2651 33.1331 16.0493 32.9242C15.8335 32.7153 15.6994 32.4361 15.6711 32.1371C13.987 14.1326 23.1137 -0.560916 42.7921 0.0164539C43.4829 0.04002 43.9658 0.212837 44.2406 0.534907Z" fill="#A7A9AC"/>
<path d="M43.3453 5.18932C43.5507 5.19605 43.7517 5.25117 43.9319 5.3502C44.1121 5.44924 44.2663 5.58939 44.3822 5.75929C44.4981 5.92919 44.5723 6.12403 44.5988 6.32801C44.6253 6.53198 44.6033 6.73933 44.5347 6.93321C44.2128 7.83658 43.4827 8.27256 42.3443 8.24113C28.1891 7.87586 23.3607 17.0666 23.7965 29.5449C23.8279 30.3304 23.6748 30.8921 23.3372 31.2299C22.9132 31.6541 22.3833 31.7601 21.7474 31.548C21.3627 31.4223 21.1664 31.1553 21.1586 30.7468C21.1115 26.6345 20.6993 22.263 22.1242 18.4806C25.5629 9.30554 32.6366 4.87511 43.3453 5.18932Z" fill="#A7A9AC"/>
<path d="M27.5999 21.6618C27.341 21.5417 27.1389 21.3252 27.0358 21.0573C26.9327 20.7895 26.9365 20.4911 27.0464 20.2243C30.0847 13.0838 35.5843 9.92983 43.5451 10.7625C43.8578 10.7936 44.1486 10.9373 44.3632 11.1669C44.5779 11.3966 44.7018 11.6964 44.7118 12.0107C44.7219 12.3249 44.6175 12.6321 44.418 12.8751C44.2186 13.118 43.9376 13.2801 43.6276 13.3312C40.9426 13.7907 38.1044 13.2841 35.8081 14.427C32.9268 15.8567 30.8227 18.1151 29.4959 21.2023C29.174 21.9407 28.542 22.0939 27.5999 21.6618Z" fill="#A7A9AC"/>
<path d="M19.0044 55.3496C19.2434 55.4799 19.4321 55.6862 19.5409 55.9358C19.6497 56.1855 19.6722 56.4643 19.605 56.7282C19.448 57.3409 19.0476 57.6905 18.4038 57.7769C17.9877 57.824 17.5284 57.714 17.026 57.4469C12.1388 54.8664 10.6314 51.0959 10.5843 45.3929C10.5136 35.4558 10.5136 25.5777 10.5843 15.7585C10.5839 15.4403 10.7061 15.1342 10.9254 14.9038C11.1447 14.6734 11.4443 14.5364 11.7619 14.5213C12.178 14.5055 12.5431 14.6784 12.8571 15.0397C13.0769 15.2911 13.1869 15.6446 13.1869 16.1002C13.2026 25.3774 13.2065 34.6585 13.1986 43.9436C13.1986 49.6701 14.0936 52.663 19.0044 55.3496Z" fill="#A7A9AC"/>
<path d="M31.4981 41.6577C31.3568 30.6052 28.0948 14.0736 43.4158 15.9117C43.6157 15.937 43.8059 16.0091 43.97 16.122C44.134 16.2349 44.2672 16.3851 44.358 16.5598C44.9546 17.6753 44.6327 18.3626 43.3923 18.6218C43.0625 18.6925 42.5601 18.7004 41.8849 18.6454C30.8269 17.6438 34.1007 34.906 34.1007 41.5399C34.101 41.6765 34.0733 41.8117 34.0193 41.9373C33.9654 42.0628 33.8863 42.1759 33.787 42.2697C33.6878 42.3636 33.5703 42.4361 33.442 42.4828C33.3137 42.5295 33.1772 42.5495 33.0408 42.5414L32.3225 42.5061C31.7808 42.4825 31.506 42.1997 31.4981 41.6577Z" fill="#A7A9AC"/>
<path d="M22.8666 61.2883C22.9823 61.3019 23.0936 61.3409 23.1924 61.4026C23.2912 61.4643 23.3752 61.5471 23.4382 61.6451C23.5013 61.7431 23.5418 61.8538 23.557 61.9694C23.5722 62.0849 23.5617 62.2024 23.5261 62.3134L23.2317 63.2678C23.0904 63.7235 22.7803 63.9316 22.3014 63.8924C9.26491 62.7494 5.30805 54.407 5.26094 42.5061C5.23739 34.9728 5.23739 27.4277 5.26094 19.8709C5.26102 19.6395 5.30793 19.4099 5.39894 19.1954C5.48994 18.9809 5.62319 18.7859 5.79087 18.6219C6.54456 17.8677 7.22759 17.9306 7.83996 18.8104C8.06764 19.1482 8.18148 19.5213 8.18148 19.9298C8.19718 27.8794 8.20111 35.833 8.19326 43.7905C8.18148 54.136 11.997 60.0511 22.8666 61.2883Z" fill="#A7A9AC"/>
<path d="M40.6613 24.0774H40.3315C39.7977 24.0774 39.5229 24.3445 39.5072 24.8787C39.3187 32.0113 39.1774 39.1558 39.0832 46.312C38.9655 54.9137 34.8751 60.5578 26.8122 63.2443C26.5862 63.3182 26.3465 63.3428 26.1089 63.3164C25.8713 63.2899 25.6414 63.2132 25.4344 63.0911C24.5943 62.5962 24.4334 61.9717 24.9516 61.2176C25.1478 60.9348 25.4108 60.7463 25.7406 60.652C40.3315 56.2569 36.4571 38.547 36.4806 27.141C36.5042 19.3406 44.4179 20.024 44.3944 25.2204C44.3708 34.0459 45.7722 46.6537 42.9812 54.3834C39.8094 63.1893 32.9909 68.0596 22.5256 68.9944C22.2344 69.0218 21.9428 68.9459 21.7017 68.7801C21.4606 68.6143 21.2854 68.369 21.2067 68.0871C20.9005 67.0424 21.1085 66.4925 21.8308 66.4375C44.8183 64.5051 42.4984 43.5666 41.4738 24.8433C41.4424 24.3327 41.1716 24.0774 40.6613 24.0774Z" fill="#A7A9AC"/>
<path d="M27.6947 23.3824H27.577C26.803 23.3824 26.1756 24.0102 26.1756 24.7846V31.7366C26.1756 32.511 26.803 33.1387 27.577 33.1387H27.6947C28.4687 33.1387 29.0961 32.511 29.0961 31.7366V24.7846C29.0961 24.0102 28.4687 23.3824 27.6947 23.3824Z" fill="#A7A9AC"/>
<path d="M18.7917 66.037C18.9223 66.0753 19.0326 66.1636 19.0987 66.2827C19.1648 66.4017 19.1814 66.542 19.145 66.6733L18.8388 67.8398C18.6818 68.4368 18.3049 68.6528 17.7083 68.4879C-3.21835 62.8556 0.149689 43.6256 0.267453 27.0704C0.267453 26.5127 0.546169 26.2338 1.10358 26.2338H2.08102C2.62273 26.2338 2.89359 26.5088 2.89359 27.0586C2.87004 42.6241 -0.827746 60.2633 18.7917 66.037Z" fill="#A7A9AC"/>
<path d="M22.313 35.507C23.087 35.507 23.7144 34.8792 23.7144 34.1048C23.7144 33.3304 23.087 32.7026 22.313 32.7026C21.5391 32.7026 20.9117 33.3304 20.9117 34.1048C20.9117 34.8792 21.5391 35.507 22.313 35.507Z" fill="#A7A9AC"/>
<path d="M17.5325 34.5054C17.9565 34.5211 18.1763 34.741 18.192 35.1652L18.5806 47.3725C18.5963 47.6788 18.6552 47.9773 18.7572 48.268L19.2636 49.6819C19.3531 49.9358 19.359 50.2116 19.2805 50.4691C19.202 50.7265 19.0432 50.9521 18.8273 51.1127C18.6115 51.2734 18.3499 51.3607 18.0809 51.3619C17.8119 51.3631 17.5496 51.2782 17.3323 51.1195C14.5531 49.0339 15.5423 38.7237 15.5658 35.342C15.5658 34.7528 15.8563 34.4661 16.4373 34.4818L17.5325 34.5054Z" fill="#A7A9AC"/>
<path d="M27.8442 34.367L27.6794 34.3633C26.9252 34.3461 26.2998 34.944 26.2827 35.6987L26.1406 41.9657C26.1235 42.7204 26.721 43.3461 27.4753 43.3632L27.6401 43.3669C28.3944 43.3841 29.0197 42.7862 29.0368 42.0315L29.179 35.7645C29.1961 35.0098 28.5985 34.3841 27.8442 34.367Z" fill="#A7A9AC"/>
<path d="M33.4649 43.92C33.6643 43.9715 33.8414 44.0869 33.969 44.2486C34.0966 44.4104 34.1677 44.6095 34.1715 44.8155C34.3285 53.4328 30.1557 58.0636 21.6532 58.7077C21.3517 58.7324 21.0506 58.6562 20.797 58.4912C20.5434 58.3262 20.3518 58.0816 20.2521 57.7959C20.1524 57.5101 20.1503 57.1993 20.2462 56.9123C20.342 56.6252 20.5304 56.3781 20.7817 56.2097C21.4491 55.762 22.1988 55.6245 23.031 55.7973C23.4314 55.8837 23.8279 55.8641 24.2204 55.7384C29.0723 54.1752 31.4825 50.8209 31.4511 45.6757C31.4511 44.9687 31.561 44.4895 31.7809 44.2381C32.142 43.8218 32.7034 43.7157 33.4649 43.92Z" fill="#A7A9AC"/>
<path d="M27.3531 44.733C28.0283 44.7251 28.5268 44.9411 28.8487 45.381C29.0842 45.711 29.1666 46.198 29.096 46.8421C28.5543 51.5632 25.7711 53.7588 20.7465 53.4289C20.5351 53.4139 20.3373 53.3193 20.193 53.1639C20.0487 53.0086 19.9688 52.8043 19.9693 52.5923V51.4258C19.9688 51.3313 19.9882 51.2377 20.0262 51.1513C20.0643 51.0648 20.1202 50.9874 20.1902 50.924C20.2602 50.8606 20.3428 50.8127 20.4326 50.7834C20.5224 50.7542 20.6173 50.7442 20.7112 50.7541C24.4404 51.194 26.2814 49.5758 26.2343 45.8995C26.2312 45.7494 26.2577 45.6001 26.3122 45.4603C26.3667 45.3204 26.4483 45.1927 26.5522 45.0843C26.6561 44.976 26.7803 44.8892 26.9177 44.8289C27.0551 44.7686 27.2031 44.736 27.3531 44.733Z" fill="#A7A9AC"/>
</svg>
