<svg width="20" height="20" viewBox="0 0 20 20" fill="none" xmlns="http://www.w3.org/2000/svg">
<path d="M14.1665 2.91667H5.83317C3.33317 2.91667 1.6665 4.16667 1.6665 7.08334V12.9167C1.6665 15.8333 3.33317 17.0833 5.83317 17.0833H14.1665C16.6665 17.0833 18.3332 15.8333 18.3332 12.9167V7.08334C18.3332 4.16667 16.6665 2.91667 14.1665 2.91667ZM14.5582 7.99167L11.9498 10.075C11.3998 10.5167 10.6998 10.7333 9.99984 10.7333C9.29984 10.7333 8.5915 10.5167 8.04984 10.075L5.4415 7.99167C5.17484 7.77501 5.13317 7.37501 5.3415 7.10834C5.55817 6.84167 5.94984 6.79167 6.2165 7.00834L8.82484 9.09167C9.45817 9.60001 10.5332 9.60001 11.1665 9.09167L13.7748 7.00834C14.0415 6.79167 14.4415 6.83334 14.6498 7.10834C14.8665 7.37501 14.8248 7.77501 14.5582 7.99167Z" fill="#A7A9AC"/>
</svg>
