<svg width="33" height="33" viewBox="0 0 33 33" fill="none" xmlns="http://www.w3.org/2000/svg">
<path d="M27.2664 11.9625L21.0376 5.73373C19.7314 4.42748 17.9301 3.72623 16.0876 3.82248L9.21265 4.15248C6.46265 4.27623 4.2764 6.46248 4.1389 9.19873L3.8089 16.0737C3.7264 17.9162 4.4139 19.7175 5.72015 21.0237L11.9489 27.2525C14.5064 29.81 18.6589 29.81 21.2301 27.2525L27.2664 21.2162C29.8376 18.6725 29.8376 14.52 27.2664 11.9625ZM13.0626 17.0225C10.8901 17.0225 9.10265 15.2487 9.10265 13.0625C9.10265 10.8762 10.8901 9.10248 13.0626 9.10248C15.2351 9.10248 17.0226 10.8762 17.0226 13.0625C17.0226 15.2487 15.2351 17.0225 13.0626 17.0225ZM24.1039 18.6037L18.6039 24.1037C18.3976 24.31 18.1364 24.4062 17.8751 24.4062C17.6139 24.4062 17.3526 24.31 17.1464 24.1037C16.7476 23.705 16.7476 23.045 17.1464 22.6462L22.6464 17.1462C23.0451 16.7475 23.7052 16.7475 24.1039 17.1462C24.5026 17.545 24.5026 18.205 24.1039 18.6037Z" fill="#ED1C24"/>
</svg>
