<svg width="34" height="34" viewBox="0 0 34 34" fill="none" xmlns="http://www.w3.org/2000/svg">
<g clip-path="url(#clip0_118_894)">
<path d="M17.0002 2.83325C9.19433 2.83325 2.8335 9.19408 2.8335 16.9999C2.8335 24.8058 9.19433 31.1666 17.0002 31.1666C24.806 31.1666 31.1668 24.8058 31.1668 16.9999C31.1668 9.19408 24.806 2.83325 17.0002 2.83325ZM15.9377 11.3333C15.9377 10.7524 16.4193 10.2708 17.0002 10.2708C17.581 10.2708 18.0627 10.7524 18.0627 11.3333V18.4166C18.0627 18.9974 17.581 19.4791 17.0002 19.4791C16.4193 19.4791 15.9377 18.9974 15.9377 18.4166V11.3333ZM18.3035 23.2049C18.2327 23.3891 18.1335 23.5308 18.006 23.6724C17.8643 23.7999 17.7085 23.8991 17.5385 23.9699C17.3685 24.0408 17.1843 24.0833 17.0002 24.0833C16.816 24.0833 16.6318 24.0408 16.4618 23.9699C16.2918 23.8991 16.136 23.7999 15.9943 23.6724C15.8668 23.5308 15.7677 23.3891 15.6968 23.2049C15.626 23.0349 15.5835 22.8508 15.5835 22.6666C15.5835 22.4824 15.626 22.2983 15.6968 22.1283C15.7677 21.9583 15.8668 21.8024 15.9943 21.6608C16.136 21.5333 16.2918 21.4341 16.4618 21.3633C16.8018 21.2216 17.1985 21.2216 17.5385 21.3633C17.7085 21.4341 17.8643 21.5333 18.006 21.6608C18.1335 21.8024 18.2327 21.9583 18.3035 22.1283C18.3743 22.2983 18.4168 22.4824 18.4168 22.6666C18.4168 22.8508 18.3743 23.0349 18.3035 23.2049Z" fill="#99CA3C"/>
</g>
<defs>
<clipPath id="clip0_118_894">
<rect width="34" height="34" fill="white"/>
</clipPath>
</defs>
</svg>
