<svg width="19" height="19" viewBox="0 0 19 19" fill="none" xmlns="http://www.w3.org/2000/svg">
<path d="M15.2318 4.41751H14.9152L12.2393 1.74167C12.0256 1.52792 11.6772 1.52792 11.4556 1.74167C11.2418 1.95542 11.2418 2.30376 11.4556 2.52542L13.3477 4.41751H5.65266L7.54475 2.52542C7.7585 2.31167 7.7585 1.96334 7.54475 1.74167C7.331 1.52792 6.98266 1.52792 6.761 1.74167L4.09308 4.41751H3.77641C3.06391 4.41751 1.5835 4.41751 1.5835 6.44417C1.5835 7.21209 1.74183 7.71876 2.07433 8.05126C2.26433 8.24917 2.49391 8.35209 2.73933 8.40751C2.96891 8.46292 3.21433 8.47084 3.45183 8.47084H15.5485C15.7939 8.47084 16.0235 8.45501 16.2452 8.40751C16.9102 8.24917 17.4168 7.77417 17.4168 6.44417C17.4168 4.41751 15.9364 4.41751 15.2318 4.41751Z" fill="#6C8C30"/>
<path d="M15.0813 9.5H3.85544C3.3646 9.5 2.99252 9.93542 3.07169 10.4183L3.73669 14.4875C3.95835 15.8492 4.5521 17.4167 7.18835 17.4167H11.6296C14.2975 17.4167 14.7725 16.0787 15.0575 14.5825L15.8571 10.4421C15.9521 9.95125 15.58 9.5 15.0813 9.5ZM9.50002 15.4375C7.64752 15.4375 6.13544 13.9254 6.13544 12.0729C6.13544 11.7483 6.4046 11.4792 6.72919 11.4792C7.05377 11.4792 7.32294 11.7483 7.32294 12.0729C7.32294 13.2762 8.29669 14.25 9.50002 14.25C10.7034 14.25 11.6771 13.2762 11.6771 12.0729C11.6771 11.7483 11.9463 11.4792 12.2709 11.4792C12.5954 11.4792 12.8646 11.7483 12.8646 12.0729C12.8646 13.9254 11.3525 15.4375 9.50002 15.4375Z" fill="#6C8C30"/>
</svg>
