<svg width="14" height="14" viewBox="0 0 14 14" fill="none" xmlns="http://www.w3.org/2000/svg">
<path d="M11.7248 5.37832C10.669 5.37832 10.2373 4.63165 10.7623 3.71582C11.0657 3.18498 10.8848 2.50832 10.354 2.20498L9.34484 1.62748C8.884 1.35332 8.289 1.51665 8.01484 1.97748L7.95067 2.08832C7.42567 3.00415 6.56234 3.00415 6.0315 2.08832L5.96734 1.97748C5.70484 1.51665 5.10984 1.35332 4.649 1.62748L3.63984 2.20498C3.109 2.50832 2.92817 3.19082 3.2315 3.72165C3.76234 4.63165 3.33067 5.37832 2.27484 5.37832C1.66817 5.37832 1.1665 5.87415 1.1665 6.48665V7.51332C1.1665 8.11998 1.66234 8.62165 2.27484 8.62165C3.33067 8.62165 3.76234 9.36832 3.2315 10.2841C2.92817 10.815 3.109 11.4916 3.63984 11.795L4.649 12.3725C5.10984 12.6466 5.70484 12.4833 5.979 12.0225L6.04317 11.9116C6.56817 10.9958 7.4315 10.9958 7.96234 11.9116L8.0265 12.0225C8.30067 12.4833 8.89567 12.6466 9.3565 12.3725L10.3657 11.795C10.8965 11.4916 11.0773 10.8091 10.774 10.2841C10.2432 9.36832 10.6748 8.62165 11.7307 8.62165C12.3373 8.62165 12.839 8.12582 12.839 7.51332V6.48665C12.8332 5.87998 12.3373 5.37832 11.7248 5.37832ZM6.99984 8.89582C5.95567 8.89582 5.104 8.04415 5.104 6.99998C5.104 5.95582 5.95567 5.10415 6.99984 5.10415C8.044 5.10415 8.89567 5.95582 8.89567 6.99998C8.89567 8.04415 8.044 8.89582 6.99984 8.89582Z" fill="white"/>
</svg>
