<svg width="45" height="69" viewBox="0 0 45 69" fill="none" xmlns="http://www.w3.org/2000/svg">
<path d="M44.2406 0.534908C44.5468 0.904111 44.5822 1.34794 44.3466 1.8664C44.1896 2.20418 43.9266 2.38878 43.5576 2.4202C40.2131 2.703 36.5153 2.703 33.477 3.86952C22.7919 7.95432 17.7673 16.1436 18.4032 28.4372C18.4817 29.8826 18.3993 31.167 18.1559 32.2903C18.0911 32.5836 17.9237 32.8442 17.684 33.025C17.4442 33.2058 17.1477 33.295 16.8481 33.2766C16.5484 33.2581 16.2651 33.1331 16.0494 32.9242C15.8336 32.7153 15.6994 32.4362 15.6711 32.1371C13.9871 14.1326 23.1138 -0.560917 42.7921 0.0164539C43.483 0.0400201 43.9659 0.212837 44.2406 0.534908Z" fill="#99CA3C"/>
<path d="M43.3453 5.18921C43.5508 5.19594 43.7518 5.25106 43.932 5.35009C44.1121 5.44912 44.2664 5.58928 44.3823 5.75918C44.4982 5.92908 44.5724 6.12392 44.5989 6.32789C44.6254 6.53187 44.6034 6.73922 44.5348 6.9331C44.2129 7.83647 43.4827 8.27245 42.3443 8.24103C28.1891 7.87575 23.3608 17.0666 23.7965 29.5448C23.8279 30.3304 23.6748 30.892 23.3372 31.2298C22.9133 31.654 22.3833 31.76 21.7474 31.548C21.3627 31.4223 21.1665 31.1552 21.1586 30.7467C21.1115 26.6344 20.6993 22.2629 22.1243 18.4805C25.563 9.30543 32.6367 4.87499 43.3453 5.18921Z" fill="#99CA3C"/>
<path d="M27.6 21.662C27.3411 21.5419 27.139 21.3253 27.0359 21.0575C26.9327 20.7897 26.9365 20.4912 27.0465 20.2245C30.0848 13.0839 35.5844 9.92997 43.5452 10.7626C43.8579 10.7937 44.1487 10.9375 44.3633 11.1671C44.5779 11.3967 44.7018 11.6966 44.7119 12.0108C44.722 12.3251 44.6176 12.6323 44.4181 12.8752C44.2186 13.1182 43.9377 13.2803 43.6276 13.3314C40.9426 13.7909 38.1045 13.2842 35.8081 14.4272C32.9268 15.8569 30.8228 18.1153 29.496 21.2024C29.1741 21.9409 28.5421 22.094 27.6 21.662Z" fill="#99CA3C"/>
<path d="M19.0044 55.3498C19.2434 55.4801 19.4322 55.6864 19.5409 55.9361C19.6497 56.1857 19.6723 56.4645 19.605 56.7284C19.448 57.3411 19.0476 57.6907 18.4038 57.7771C17.9877 57.8242 17.5285 57.7142 17.026 57.4472C12.1388 54.8667 10.6314 51.0961 10.5843 45.3931C10.5136 35.456 10.5136 25.5779 10.5843 15.7586C10.5839 15.4405 10.7061 15.1344 10.9254 14.904C11.1447 14.6736 11.4443 14.5366 11.7619 14.5214C12.178 14.5057 12.5431 14.6785 12.8571 15.0399C13.077 15.2912 13.1869 15.6447 13.1869 16.1003C13.2026 25.3775 13.2065 34.6587 13.1987 43.9438C13.1987 49.6703 14.0937 52.6632 19.0044 55.3498Z" fill="#99CA3C"/>
<path d="M31.4982 41.6579C31.3569 30.6054 28.0948 14.0737 43.4159 15.9119C43.6158 15.9371 43.8059 16.0093 43.97 16.1222C44.1341 16.235 44.2673 16.3853 44.358 16.5599C44.9547 17.6754 44.6328 18.3628 43.3924 18.622C43.0626 18.6927 42.5602 18.7005 41.885 18.6455C30.8269 17.644 34.1008 34.9062 34.1008 41.5401C34.101 41.6767 34.0733 41.8119 34.0194 41.9375C33.9654 42.063 33.8864 42.1761 33.7871 42.2699C33.6878 42.3638 33.5704 42.4363 33.4421 42.483C33.3138 42.5297 33.1772 42.5497 33.0409 42.5416L32.3225 42.5063C31.7808 42.4827 31.5061 42.1999 31.4982 41.6579Z" fill="#99CA3C"/>
<path d="M22.8667 61.2884C22.9824 61.302 23.0936 61.341 23.1924 61.4027C23.2913 61.4644 23.3752 61.5472 23.4383 61.6452C23.5013 61.7432 23.5419 61.854 23.5571 61.9695C23.5723 62.0851 23.5617 62.2025 23.5261 62.3135L23.2317 63.268C23.0904 63.7236 22.7803 63.9317 22.3014 63.8925C9.26493 62.7495 5.30805 54.4071 5.26095 42.5062C5.2374 34.9729 5.2374 27.4278 5.26095 19.8709C5.26103 19.6396 5.30794 19.4099 5.39895 19.1955C5.48995 18.981 5.6232 18.786 5.79088 18.6219C6.54457 17.8678 7.2276 17.9306 7.83997 18.8104C8.06765 19.1482 8.18149 19.5213 8.18149 19.9298C8.19719 27.8795 8.20112 35.833 8.19327 43.7905C8.18149 54.1361 11.997 60.0512 22.8667 61.2884Z" fill="#99CA3C"/>
<path d="M40.6613 24.0775H40.3316C39.7977 24.0775 39.5229 24.3445 39.5072 24.8787C39.3188 32.0114 39.1775 39.1559 39.0833 46.3121C38.9655 54.9138 34.8752 60.5579 26.8123 63.2444C26.5863 63.3183 26.3465 63.3429 26.109 63.3165C25.8714 63.2901 25.6415 63.2133 25.4344 63.0912C24.5944 62.5963 24.4334 61.9718 24.9516 61.2177C25.1479 60.9349 25.4109 60.7464 25.7406 60.6521C40.3316 56.257 36.4571 38.5471 36.4807 27.1411C36.5043 19.3407 44.418 20.0241 44.3944 25.2204C44.3709 34.0459 45.7723 46.6538 42.9813 54.3835C39.8095 63.1894 32.991 68.0597 22.5257 68.9945C22.2344 69.0219 21.9428 68.9461 21.7017 68.7802C21.4607 68.6144 21.2855 68.3691 21.2067 68.0872C20.9005 67.0425 21.1086 66.4926 21.8309 66.4376C44.8184 64.5052 42.4984 43.5667 41.4739 24.8434C41.4425 24.3328 41.1716 24.0775 40.6613 24.0775Z" fill="#99CA3C"/>
<path d="M27.6948 23.3824H27.577C26.803 23.3824 26.1756 24.0102 26.1756 24.7846V31.7366C26.1756 32.511 26.803 33.1388 27.577 33.1388H27.6948C28.4687 33.1388 29.0962 32.511 29.0962 31.7366V24.7846C29.0962 24.0102 28.4687 23.3824 27.6948 23.3824Z" fill="#99CA3C"/>
<path d="M18.7917 66.037C18.9224 66.0753 19.0326 66.1636 19.0987 66.2827C19.1649 66.4017 19.1815 66.542 19.145 66.6733L18.8388 67.8398C18.6818 68.4368 18.305 68.6528 17.7083 68.4879C-3.21836 62.8555 0.149689 43.6256 0.267453 27.0703C0.267453 26.5126 0.54617 26.2338 1.10359 26.2338H2.08102C2.62273 26.2338 2.89359 26.5087 2.89359 27.0586C2.87004 42.624 -0.827747 60.2633 18.7917 66.037Z" fill="#99CA3C"/>
<path d="M22.3131 35.5071C23.087 35.5071 23.7145 34.8793 23.7145 34.1049C23.7145 33.3305 23.087 32.7027 22.3131 32.7027C21.5391 32.7027 20.9117 33.3305 20.9117 34.1049C20.9117 34.8793 21.5391 35.5071 22.3131 35.5071Z" fill="#99CA3C"/>
<path d="M17.5325 34.5054C17.9565 34.5211 18.1763 34.7411 18.192 35.1653L18.5806 47.3726C18.5963 47.6789 18.6552 47.9774 18.7573 48.2681L19.2637 49.682C19.3531 49.9359 19.359 50.2117 19.2805 50.4692C19.202 50.7266 19.0432 50.9522 18.8274 51.1128C18.6115 51.2735 18.35 51.3608 18.081 51.362C17.8119 51.3632 17.5496 51.2783 17.3323 51.1196C14.5531 49.034 15.5423 38.7238 15.5659 35.342C15.5659 34.7529 15.8564 34.4662 16.4373 34.4819L17.5325 34.5054Z" fill="#99CA3C"/>
<path d="M27.8443 34.3671L27.6795 34.3633C26.9252 34.3462 26.2999 34.9441 26.2828 35.6988L26.1406 41.9658C26.1235 42.7205 26.7211 43.3461 27.4753 43.3633L27.6402 43.367C28.3944 43.3841 29.0198 42.7862 29.0369 42.0315L29.179 35.7646C29.1961 35.0099 28.5986 34.3842 27.8443 34.3671Z" fill="#99CA3C"/>
<path d="M33.465 43.9201C33.6644 43.9715 33.8414 44.087 33.969 44.2487C34.0966 44.4104 34.1678 44.6096 34.1715 44.8156C34.3286 53.4329 30.1558 58.0637 21.6532 58.7078C21.3517 58.7325 21.0506 58.6564 20.797 58.4913C20.5434 58.3263 20.3518 58.0817 20.2521 57.796C20.1524 57.5102 20.1503 57.1994 20.2462 56.9124C20.342 56.6253 20.5304 56.3782 20.7818 56.2098C21.4491 55.7621 22.1989 55.6246 23.0311 55.7974C23.4315 55.8838 23.8279 55.8642 24.2205 55.7385C29.0724 54.1753 31.4826 50.821 31.4512 45.6757C31.4512 44.9688 31.5611 44.4896 31.7809 44.2382C32.1421 43.8219 32.7034 43.7158 33.465 43.9201Z" fill="#99CA3C"/>
<path d="M27.3531 44.7331C28.0283 44.7252 28.5268 44.9412 28.8487 45.3811C29.0843 45.7111 29.1667 46.1981 29.096 46.8422C28.5543 51.5633 25.7712 53.7589 20.7466 53.429C20.5352 53.414 20.3373 53.3193 20.193 53.164C20.0488 53.0087 19.9688 52.8044 19.9693 52.5924V51.4258C19.9688 51.3314 19.9882 51.2378 20.0263 51.1514C20.0643 51.0649 20.1202 50.9875 20.1902 50.9241C20.2602 50.8607 20.3428 50.8128 20.4326 50.7835C20.5224 50.7542 20.6173 50.7443 20.7112 50.7542C24.4404 51.1941 26.2815 49.5759 26.2344 45.8996C26.2312 45.7495 26.2577 45.6002 26.3122 45.4604C26.3668 45.3205 26.4483 45.1927 26.5522 45.0844C26.6561 44.9761 26.7803 44.8893 26.9177 44.829C27.0552 44.7687 27.2031 44.7361 27.3531 44.7331Z" fill="#99CA3C"/>
</svg>
