<svg width="24" height="24" viewBox="0 0 24 24" fill="none" xmlns="http://www.w3.org/2000/svg">
<path fill-rule="evenodd" clip-rule="evenodd" d="M12.4348 5.82392H11.5652H11.4578C10.2001 4.3619 9.0716 3.52672 8.07693 3.18364C6.99515 2.8105 6.0337 3.01897 5.38404 3.69122C4.85713 4.23646 4.49932 5.16478 4.63912 5.82392H3.99999C2.89542 5.82392 1.99999 6.71936 1.99999 7.82393V10.913V12.413H3.49999H10.0652H11.5652V10.913V7.70653H12.4348V10.913V12.413H13.9348H20.5H22V10.913V7.82392C22 6.71936 21.1045 5.82392 20 5.82392H19.5858C19.6972 5.19085 19.3435 4.3006 18.8226 3.78098C18.1638 3.12377 17.1887 2.91996 16.0917 3.28475C15.0929 3.61686 13.961 4.42063 12.7006 5.82392H12.4348ZM15.3296 5.82392H17.4597C17.4597 5.82388 17.4597 5.82385 17.4597 5.82385C17.7351 5.82386 17.7641 5.71138 17.779 5.6536C17.8141 5.51751 17.7759 5.30587 17.6302 5.16054C17.5223 5.05296 17.2378 4.87436 16.6098 5.08317C16.2673 5.19707 15.8395 5.42425 15.3296 5.82392ZM8.8808 5.82392C8.35481 5.38828 7.91542 5.14373 7.56599 5.0232C6.94676 4.80962 6.66621 4.9923 6.55986 5.10234C6.41621 5.25099 6.37854 5.46748 6.41313 5.60668L6.41472 5.61318C6.43009 5.67657 6.46583 5.8239 6.72795 5.8239C6.72874 5.8239 6.72952 5.82391 6.73031 5.82392H8.8808ZM3.99999 7.32393H10.0652V10.913H3.49999V7.82393C3.49999 7.54778 3.72385 7.32393 3.99999 7.32393ZM20 7.32393H13.9348V10.913H20.5V7.82392C20.5 7.54778 20.2761 7.32393 20 7.32393ZM20.5 14.8543H13.9347V19.5H20C20.2761 19.5 20.5 19.2762 20.5 19V14.8543ZM13.9347 13.3543H12.4347V14.8543V19.5V21H13.9347H20C21.1045 21 22 20.1046 22 19V14.8543V13.3543H20.5H13.9347ZM10.0652 14.8543H3.49999V19C3.49999 19.2762 3.72385 19.5 3.99999 19.5H10.0652V14.8543ZM3.49999 13.3543H1.99999V14.8543V19C1.99999 20.1046 2.89542 21 3.99999 21H10.0652H11.5652V19.5V14.8543V13.3543H10.0652H3.49999Z" fill="#BBBBBB"/>
</svg>
