<svg width="14" height="9" viewBox="0 0 14 9" fill="none" xmlns="http://www.w3.org/2000/svg">
<path d="M13.4337 3.16916L9.272 2.75855L7.41163 0.198076C7.36082 0.127972 7.27722 0.071221 7.17396 0.0367253C6.91498 -0.0500703 6.60028 0.0222594 6.47079 0.198076L4.61042 2.75855L0.448758 3.16916C0.334022 3.18028 0.22912 3.21701 0.148804 3.27264C0.051707 3.3404 -0.00179794 3.43155 4.61338e-05 3.52607C0.0018902 3.62059 0.0589324 3.71074 0.158639 3.77673L3.16965 5.76969L2.45829 8.58387C2.44161 8.64933 2.45228 8.71666 2.48909 8.77821C2.5259 8.83977 2.58738 8.89309 2.66656 8.93213C2.74574 8.97118 2.83945 8.99437 2.93707 8.9991C3.03468 9.00383 3.13229 8.98989 3.21883 8.95887L6.94121 7.63023L10.6636 8.95887C10.7652 8.99559 10.8832 9.00783 10.9963 8.99448C11.2815 8.96109 11.4733 8.77749 11.4241 8.58387L10.7128 5.76969L13.7238 3.77673C13.8057 3.7222 13.8598 3.65098 13.8762 3.57309C13.9205 3.37836 13.7205 3.19809 13.4337 3.16916Z" fill="#F4D150"/>
</svg>
