<svg width="34" height="34" viewBox="0 0 34 34" fill="none" xmlns="http://www.w3.org/2000/svg">
<path d="M17 0C7.633 0 0 7.633 0 17C0 26.367 7.633 34 17 34C26.367 34 34 26.367 34 17C34 7.633 26.367 0 17 0ZM20.043 22.1C20.536 22.593 20.536 23.409 20.043 23.902C19.788 24.157 19.465 24.276 19.142 24.276C18.819 24.276 18.496 24.157 18.241 23.902L12.24 17.901C11.747 17.408 11.747 16.592 12.24 16.099L18.241 10.098C18.734 9.605 19.55 9.605 20.043 10.098C20.536 10.591 20.536 11.407 20.043 11.9L14.943 17L20.043 22.1Z" fill="#D1512D"/>
</svg>
