<svg width="23" height="23" viewBox="0 0 23 23" fill="none" xmlns="http://www.w3.org/2000/svg">
<path d="M7.93479 2.3964C8.53854 2.41476 9.12312 2.52017 9.6895 2.7128H9.74604C9.78437 2.73101 9.81312 2.75113 9.83229 2.76934C10.0441 2.83738 10.2444 2.91405 10.436 3.01947L10.8002 3.18238C10.944 3.25905 11.1165 3.40184 11.2123 3.4603C11.3081 3.51684 11.4135 3.5753 11.4998 3.64142C12.5645 2.8278 13.8573 2.38697 15.1894 2.3964C15.7941 2.3964 16.3978 2.48184 16.9719 2.67447C20.5091 3.82447 21.7837 7.70571 20.7189 11.0982C20.1152 12.8318 19.1281 14.414 17.8353 15.7068C15.9848 17.4989 13.9541 19.0897 11.7681 20.4602L11.5285 20.6049L11.2794 20.4506C9.08575 19.0897 7.04354 17.4989 5.17575 15.6972C3.89159 14.4045 2.90355 12.8318 2.29021 11.0982C1.2073 7.70571 2.48188 3.82447 6.05742 2.65434C6.33533 2.55851 6.62188 2.49142 6.90938 2.45405H7.02437C7.29367 2.41476 7.56104 2.3964 7.82937 2.3964H7.93479ZM16.4735 5.42488C16.0806 5.28976 15.6494 5.50155 15.5056 5.90405C15.3715 6.30655 15.5823 6.74738 15.9848 6.89017C16.5991 7.12017 17.0102 7.72488 17.0102 8.39475V8.42446C16.992 8.64392 17.0581 8.85571 17.1923 9.01863C17.3264 9.18154 17.5277 9.27642 17.7385 9.29654C18.1314 9.286 18.4669 8.97071 18.4956 8.56725V8.45321C18.5244 7.11059 17.7107 5.89446 16.4735 5.42488Z" fill="#D1512D"/>
</svg>
