<svg width="26" height="26" viewBox="0 0 26 26" fill="none" xmlns="http://www.w3.org/2000/svg">
<path fill-rule="evenodd" clip-rule="evenodd" d="M13.2167 6.54979C13.3651 6.5486 13.508 6.60642 13.6138 6.71054C13.7196 6.81466 13.7797 6.95656 13.7809 7.105L13.8261 12.7022L19.4233 12.6571C19.5717 12.6559 19.7146 12.7137 19.8204 12.8179C19.9262 12.922 19.9863 13.0639 19.9875 13.2123C19.9887 13.3608 19.9309 13.5036 19.8268 13.6094C19.7227 13.7152 19.5808 13.7754 19.4323 13.7766L13.8351 13.8217L13.8802 19.4189C13.8814 19.5674 13.8236 19.7102 13.7195 19.816C13.6153 19.9218 13.4735 19.982 13.325 19.9832C13.1766 19.9844 13.0337 19.9265 12.9279 19.8224C12.8221 19.7183 12.762 19.5764 12.7608 19.4279L12.7156 13.8307L7.11841 13.8758C6.96996 13.877 6.82712 13.8192 6.7213 13.7151C6.61549 13.611 6.55537 13.4691 6.55417 13.3206C6.55297 13.1722 6.6108 13.0293 6.71492 12.9235C6.81904 12.8177 6.96093 12.7576 7.10938 12.7564L12.7066 12.7113L12.6615 7.11403C12.6603 6.96558 12.7181 6.82274 12.8222 6.71692C12.9264 6.61111 13.0682 6.55099 13.2167 6.54979Z" fill="white"/>
</svg>
