<svg width="24" height="24" viewBox="0 0 24 24" fill="none" xmlns="http://www.w3.org/2000/svg">
<path fill-rule="evenodd" clip-rule="evenodd" d="M15.8085 3.59091C15.8438 3.29199 15.8954 2.9952 15.9631 2.70184C16.1018 2.17075 16.524 1.91504 16.9938 2.02519C17.1167 2.04686 17.2334 2.09449 17.3361 2.16486C17.4387 2.23522 17.5249 2.32668 17.5889 2.43302C17.6528 2.53936 17.6929 2.6581 17.7065 2.78118C17.7201 2.90426 17.7069 3.02881 17.6678 3.14638C17.5743 3.47728 17.4578 3.80131 17.3189 4.1161C17.1425 4.52917 16.9007 4.88323 16.3635 4.79078C15.975 4.7239 15.7887 4.36591 15.8085 3.59091ZM6.31214 5.36907L6.31214 5.36906L6.31214 5.36906C6.41076 4.90152 6.50198 4.46907 6.61902 4.04137C6.73201 3.63224 7.05312 3.57519 7.44955 3.65977C9.10908 4.01967 10.7711 4.3697 12.4326 4.71963L12.4327 4.71964L12.434 4.71991C12.8697 4.81168 13.3054 4.90343 13.741 4.99536C14.0819 5.06712 14.4226 5.13922 14.7634 5.21131L14.7636 5.21136C15.5996 5.38822 16.4354 5.56505 17.2732 5.73691C17.4375 5.75068 17.5933 5.81492 17.7191 5.92068C17.8448 6.02644 17.9343 6.16847 17.9749 6.32701C18.0229 6.41805 18.0903 6.4976 18.1725 6.56011C18.2546 6.62262 18.3496 6.66658 18.4506 6.68894C18.7915 6.76565 19.0096 6.90728 18.9997 7.2633C18.9898 7.61933 18.746 7.77078 18.405 7.77668H17.961C17.9041 7.76982 17.8463 7.77529 17.7917 7.79272C17.7372 7.81015 17.687 7.83912 17.6448 7.87764C17.6026 7.91617 17.5693 7.96331 17.5472 8.01584C17.5252 8.06837 17.5149 8.12502 17.517 8.18188C17.3541 9.81074 17.1862 11.4396 17.0183 13.0685C16.9512 13.7194 16.8841 14.3702 16.8173 15.0211C16.6191 16.9429 16.4209 18.8646 16.2227 20.7844C16.1878 21.1153 16.0304 21.4216 15.7811 21.644C15.5317 21.8664 15.2081 21.989 14.8728 21.9882C12.991 22.0039 11.1086 22.0039 9.22559 21.9882C8.45254 21.9882 7.93123 21.4906 7.83806 20.7136C7.50506 17.5887 7.17866 14.4631 6.85887 11.3369C6.83137 11.0728 6.80319 10.8087 6.77501 10.5445L6.77499 10.5443C6.69551 9.79934 6.61601 9.05409 6.55162 8.30777C6.51595 7.91438 6.35341 7.76882 5.95697 7.76095C5.26123 7.74915 4.94607 7.55245 5.00752 7.18856C5.09397 6.67905 5.47726 6.68541 5.84842 6.69157C5.89423 6.69233 5.93986 6.69309 5.98473 6.69288H8.60912C8.75614 6.71404 9.04917 6.66533 9.04917 6.66533C9.04917 6.66533 9.4228 6.52672 9.41587 6.33488C9.40899 6.14486 9.16611 6.03786 9.03331 6.02999C8.54555 5.99926 8.05417 5.99854 7.56388 5.99782H7.56381C7.4265 5.99762 7.28927 5.99742 7.15223 5.99656C6.85095 6.00836 6.54769 6.00836 6.17506 6.00836H6.17502C6.22404 5.78677 6.2688 5.57454 6.31214 5.36907ZM12.0343 8.22713H8.02042C7.38018 8.22713 7.20574 8.4494 7.27115 9.069C7.39537 10.24 7.51255 11.4128 7.62972 12.5856L7.62972 12.5857L7.62977 12.5862C7.68833 13.1723 7.7469 13.7585 7.80634 14.3445C8.00456 16.3626 8.21467 18.3847 8.43866 20.4028C8.52191 21.1601 8.73598 21.3371 9.49119 21.3411C11.1919 21.3489 12.8926 21.3489 14.5933 21.3411C15.3267 21.3411 15.5289 21.166 15.6102 20.4284C15.8348 18.3597 16.046 16.291 16.2571 14.2241L16.2663 14.134C16.3007 13.7953 16.3355 13.4566 16.3702 13.1179L16.3702 13.1176C16.5091 11.7628 16.648 10.408 16.7717 9.05327C16.8332 8.39039 16.6627 8.23106 15.9987 8.2291C15.0068 8.22614 14.015 8.22651 13.024 8.22688L12.0343 8.22713ZM9.64179 12.3991V14.4153H9.64576C9.64576 14.65 9.64356 14.8847 9.64135 15.1195C9.63695 15.5889 9.63254 16.0584 9.64576 16.5278C9.66162 17.1061 9.95498 17.3894 10.5496 17.4012C10.5956 17.4019 10.6417 17.4026 10.6877 17.4033C11.1709 17.4108 11.654 17.4183 12.1354 17.3914C13.6339 17.3087 14.7221 16.1797 14.8232 14.6258C14.9223 13.1033 14.0045 11.811 12.5595 11.5514C11.9071 11.4594 11.2478 11.4245 10.5893 11.4471C9.96488 11.4471 9.65567 11.7736 9.64179 12.3991ZM11.0871 14.7443C11.0889 14.6397 11.0908 14.5352 11.0908 14.431C11.0908 14.3194 11.0917 14.2057 11.0927 14.0917C11.0948 13.8401 11.097 13.5873 11.0888 13.3531C11.0769 13.0128 11.2454 12.9027 11.5685 12.8889C12.7399 12.8397 13.5328 13.6364 13.3346 14.6966C13.1582 15.7056 12.3316 16.0735 11.3742 15.9358C11.2652 15.92 11.1185 15.6938 11.1046 15.5542C11.0775 15.2861 11.0823 15.0149 11.0871 14.7443Z" fill="#BBBBBB"/>
</svg>
