<svg width="62" height="43" viewBox="0 0 62 43" fill="none" xmlns="http://www.w3.org/2000/svg">
<path d="M25.8334 32.25H36.1667C36.1667 32.25 36.4251 35.8333 31.0001 35.8333C25.5751 35.8333 25.8334 32.25 25.8334 32.25Z" fill="white"/>
<path d="M43.1417 27.5917C41.85 27.2333 41.3333 26.3375 41.3333 25.4417V16.125C41.3333 16.125 40.8167 11.825 33.5833 10.9292V8.95832C33.5833 8.95832 33.8417 7.16666 31 7.16666C28.1583 7.16666 28.4167 8.95832 28.4167 8.95832V10.9292C21.1833 11.825 20.6667 16.125 20.6667 16.125V25.4417C20.6667 26.3375 19.8917 27.2333 18.8583 27.5917L15.5 28.6667V30.4583H46.5V28.6667L43.1417 27.5917ZM25.8333 15.7667V28.6667H20.6667C22.7333 28.6667 23.25 26.875 23.25 26.875V16.125C23.25 16.125 23.25 14.6917 25.0583 13.6167C26.8667 12.3625 28.4167 12.5417 28.4167 12.5417C28.4167 12.5417 25.8333 13.7958 25.8333 15.7667Z" fill="white"/>
</svg>
