<svg width="24" height="24" viewBox="0 0 24 24" fill="none" xmlns="http://www.w3.org/2000/svg">
<g clip-path="url(#clip0_50_338)">
<path d="M12.879 0.563328C12.7212 0.220086 12.378 8.14755e-05 12.0002 2.26348e-08C11.6224 -8.14302e-05 11.2789 0.219678 11.1211 0.562921C8.68769 5.85532 4.37207 12.6672 4.37207 16.3721C4.37207 20.5849 7.78714 24 12 24C16.2128 24 19.6279 20.5848 19.6279 16.3721C19.628 12.6675 15.3125 5.85573 12.879 0.563328ZM11.6742 21.57C8.85581 21.57 6.56299 19.2772 6.56299 16.4589C6.56299 15.8966 7.01888 15.4407 7.58115 15.4407C8.14342 15.4407 8.59931 15.8966 8.59931 16.4589C8.59931 18.1543 9.97872 19.5337 11.6742 19.5337C12.2364 19.5337 12.6923 19.9896 12.6923 20.5519C12.6923 21.1142 12.2364 21.57 11.6742 21.57Z" fill="#DDDDDD"/>
</g>
<defs>
<clipPath id="clip0_50_338">
<rect width="24" height="24" fill="white"/>
</clipPath>
</defs>
</svg>
