<svg width="24" height="24" viewBox="0 0 24 24" fill="none" xmlns="http://www.w3.org/2000/svg">
<g clip-path="url(#clip0_50_335)">
<path d="M7.55273 11.4563C7.08202 10.4539 6.90959 9.37074 6.74013 8.3099C6.59198 7.37987 6.43887 6.41911 6.08163 5.54111C5.09461 3.11965 2.71032 1.49197 0.148146 1.49049L0.132786 1.48999C0.104048 1.59454 0.0827416 1.70305 0.0753093 1.8185L0.0232829 2.67124C-0.246759 7.06622 1.85511 10.9598 5.45533 12.9516C6.11433 12.3764 6.81842 11.8824 7.55273 11.4563Z" fill="#DDDDDD"/>
<path d="M6.99926 5.1675C7.40011 6.15055 7.56214 7.16927 7.71921 8.15381C7.87875 9.1547 8.03285 10.1209 8.42924 10.987C10.1139 10.1769 11.9467 9.7473 13.8459 9.7473C13.8514 9.7473 13.8563 9.7478 13.8618 9.7478C13.1666 4.30634 8.75924 0.366211 3.06706 0.366211C2.81486 0.366211 2.56067 0.374139 2.30351 0.389994L1.45127 0.442516C1.27636 0.452922 1.11533 0.492561 0.966187 0.551524C3.59624 0.855754 5.96518 2.63109 6.99926 5.1675Z" fill="#DDDDDD"/>
<path d="M14.2478 16.8239C16.7079 19.284 20.7114 19.284 23.1715 16.8239L23.8048 16.2224C23.7007 15.989 23.5659 15.763 23.3836 15.5569L22.8172 14.9177C20.4339 12.2233 17.2484 10.7383 13.8464 10.7383C10.4444 10.7383 7.2579 12.2228 4.8751 14.9177L4.30925 15.5569C3.952 15.9607 3.7543 16.4324 3.69781 16.9146L3.84151 16.8026C6.71832 13.9486 11.3804 13.956 14.2478 16.8239Z" fill="#DDDDDD"/>
<path d="M23.8627 17.5334C22.4917 18.9049 20.6584 19.665 18.7096 19.665C16.7609 19.665 14.9271 18.9049 13.5471 17.525C12.3545 16.3323 10.7511 15.6753 9.03374 15.6753C7.31637 15.6753 5.71297 16.3323 4.52033 17.525L4.47425 17.5646L3.8425 18.0581C3.94853 18.3252 4.10263 18.5813 4.30875 18.8147L4.8746 19.4544C7.2579 22.1489 10.4439 23.6333 13.8459 23.6333C17.248 23.6333 20.4339 22.1494 22.8168 19.4549L23.3831 18.8152C23.7537 18.396 23.9529 17.9035 23.9995 17.4031L23.8627 17.5334Z" fill="#DDDDDD"/>
</g>
<defs>
<clipPath id="clip0_50_335">
<rect width="24" height="24" fill="white"/>
</clipPath>
</defs>
</svg>
