<svg width="33" height="44" viewBox="0 0 33 44" fill="none" xmlns="http://www.w3.org/2000/svg">
<g filter="url(#filter0_b_103_274)">
<path d="M16.9734 10.9046L16.8461 10.8452C16.705 10.7794 16.613 10.6417 16.5636 10.499C16.5131 10.353 16.499 10.1806 16.531 10.013M16.9734 10.9046L17.4846 10.3753L17.3365 10.3471L17.4846 10.3751C17.7597 8.92923 18.3292 7.70924 19.0631 6.85387C19.7971 5.9983 20.6876 5.51537 21.6114 5.51537C21.7752 5.51537 21.9023 5.41169 21.981 5.2886C22.0607 5.16378 22.1052 5.00051 22.1052 4.82797C22.1052 4.65543 22.0607 4.49216 21.9809 4.36734C21.9023 4.24425 21.7752 4.14058 21.6114 4.14058C20.3865 4.14058 19.2721 4.77896 18.39 5.82583C17.508 6.87243 16.8501 8.33521 16.531 10.013M16.9734 10.9046L16.9863 10.8814L16.9734 10.9046ZM16.531 10.013L16.6791 10.0413L16.531 10.0131C16.531 10.0131 16.531 10.0131 16.531 10.013ZM16.7916 10.6111L16.7782 10.6352L16.7781 10.6353L16.8758 10.6897C16.8756 10.6895 16.8753 10.6893 16.875 10.6891C16.8444 10.6691 16.8164 10.6426 16.7916 10.6111Z" fill="#F5F5F5" stroke="#F9FFF9" stroke-width="0.3"/>
<path d="M26.4135 31.1225H24.3554C24.166 31.1225 24.0124 30.8821 24.0124 30.5858C24.0124 30.2896 24.166 30.0492 24.3554 30.0492H26.4135C29.2506 30.0492 31.559 26.4381 31.559 21.9999C31.559 17.5618 29.2506 13.9507 26.4135 13.9507H26.364C26.2646 13.9507 26.17 13.8832 26.1048 13.7655C26.0396 13.6479 26.0102 13.4919 26.0245 13.3378C26.0551 13.0035 26.0705 12.6678 26.0705 12.3408C26.0705 8.49442 24.0699 5.36473 21.6111 5.36473C20.6545 5.36473 19.7423 5.83235 18.9729 6.71738C18.8039 6.91172 18.5637 6.82547 18.466 6.53454C16.287 0.0437808 10.5958 -0.827863 7.64517 4.81854C6.4022 7.19728 5.91382 10.2916 6.30517 13.3075C6.34829 13.6406 6.18535 13.9511 5.969 13.9511H5.83154C2.99446 13.9511 0.686093 17.5622 0.686093 22.0004C0.686093 26.4385 2.99446 30.0496 5.83154 30.0496H7.88969C8.07909 30.0496 8.23273 30.29 8.23273 30.5863C8.23273 30.8825 8.0791 31.1229 7.88969 31.1229H5.83154C2.6161 31.1229 0 27.0304 0 22.0003C0 17.1113 2.47126 13.1081 5.56226 12.8874C5.27191 9.75846 5.82713 6.60237 7.11396 4.13934C10.273 -1.90643 16.3271 -1.22878 18.8863 5.51269C19.7027 4.71197 20.637 4.29192 21.611 4.29192C24.59 4.29192 26.9505 8.25832 26.744 12.8924C29.8065 13.1611 32.2449 17.1431 32.2449 21.9999C32.2449 27.0304 29.6288 31.1225 26.4134 31.1225L26.4135 31.1225Z" fill="#F5F5F5"/>
<path d="M7.34991 30.2828C7.34991 34.006 8.31777 37.389 9.88831 39.8459C11.4577 42.3009 13.6429 43.8492 16.0765 43.8492C18.5102 43.8492 20.6954 42.3009 22.2648 39.8458C23.8353 37.389 24.8032 34.006 24.8032 30.2828C24.8032 26.5596 23.8353 23.1766 22.2648 20.7197C20.6954 18.2647 18.5102 16.7164 16.0765 16.7164C13.6429 16.7164 11.4577 18.2647 9.88829 20.7198C8.31775 23.1767 7.34991 26.5597 7.34991 30.2828ZM8.33767 30.2828C8.33767 26.9046 9.21642 23.8482 10.6274 21.6409C12.0395 19.4319 13.9706 18.0914 16.0765 18.0914C18.1824 18.0914 20.1136 19.4319 21.5257 21.6409C22.9366 23.8481 23.8154 26.9046 23.8154 30.2828C23.8154 33.661 22.9366 36.7175 21.5257 38.9247C20.1136 41.1337 18.1824 42.4742 16.0765 42.4742C13.9706 42.4742 12.0395 41.1338 10.6274 38.9247C9.21644 36.7175 8.33767 33.6611 8.33767 30.2828Z" fill="#F5F5F5" stroke="#F9FFF9" stroke-width="0.3"/>
<path d="M15.8314 35.6835C15.8314 35.8163 15.8656 35.9436 15.9287 36.0424C15.9908 36.1395 16.0949 36.2271 16.2333 36.2271C16.3717 36.2271 16.4758 36.1397 16.5379 36.0426C16.6011 35.9438 16.6352 35.8164 16.6352 35.6835V25.4688C16.6352 25.336 16.6011 25.2087 16.5379 25.1099C16.4759 25.0128 16.3718 24.9252 16.2333 24.9252C16.0949 24.9252 15.9908 25.0128 15.9287 25.1099C15.8656 25.2087 15.8314 25.336 15.8314 25.4688V35.6835Z" fill="#F5F5F5" stroke="#D1512D" stroke-width="0.3"/>
<path d="M16.2333 26.3056L17.9377 28.972C17.9377 28.972 17.9377 28.972 17.9377 28.972C18.006 29.0788 18.1129 29.1566 18.2424 29.1566L16.2333 26.3056ZM16.2333 26.3056L14.5289 28.9719L16.2333 26.3056ZM14.0466 28.3351L13.9196 28.2539L15.9286 25.1111L14.0466 28.3351ZM14.0466 28.3351L13.9196 28.2539C13.8517 28.3601 13.8222 28.4904 13.8222 28.613C13.8222 28.7355 13.8517 28.8659 13.9196 28.972C13.9879 29.0789 14.0947 29.1567 14.2243 29.1567M14.0466 28.3351L14.2243 29.1567M14.2243 29.1567C14.3538 29.1567 14.4605 29.0789 14.5288 28.972L14.2243 29.1567ZM18.2424 29.1566C18.3716 29.1566 18.4785 29.0794 18.547 28.972L18.2424 29.1566Z" fill="#F5F5F5" stroke="#D1512D" stroke-width="0.3"/>
</g>
<defs>
<filter id="filter0_b_103_274" x="-4.02055" y="-4.02055" width="40.286" height="52.0411" filterUnits="userSpaceOnUse" color-interpolation-filters="sRGB">
<feFlood flood-opacity="0" result="BackgroundImageFix"/>
<feGaussianBlur in="BackgroundImageFix" stdDeviation="2"/>
<feComposite in2="SourceAlpha" operator="in" result="effect1_backgroundBlur_103_274"/>
<feBlend mode="normal" in="SourceGraphic" in2="effect1_backgroundBlur_103_274" result="shape"/>
</filter>
</defs>
</svg>
