<svg width="87" height="105" viewBox="0 0 87 105" fill="none" xmlns="http://www.w3.org/2000/svg">
<path d="M45.5673 25.8448L45.4499 25.7961C45.157 25.6744 44.9415 25.4064 44.819 25.0913C44.6959 24.7747 44.6605 24.3958 44.7394 24.0269L45.5673 25.8448ZM45.5673 25.8448L45.5725 25.8367M45.5673 25.8448L45.5725 25.8367M45.5725 25.8367C45.8324 25.9021 46.0904 25.8355 46.3022 25.6753C46.5441 25.4923 46.7245 25.1903 46.8027 24.8225L45.5725 25.8367ZM58.1602 10.1315C51.7679 10.1315 46.4439 16.0498 44.7394 24.0269L46.8027 24.8223C48.2971 17.8292 52.9887 13.0036 58.1602 13.0036C58.4759 13.0036 58.7478 12.825 58.935 12.5643C59.1224 12.3033 59.2337 11.9504 59.2337 11.5676C59.2337 11.1847 59.1224 10.8318 58.935 10.5708C58.7478 10.3101 58.4758 10.1315 58.1602 10.1315Z" fill="#D1512D" stroke="#F9FFF9" stroke-width="0.3"/>
<path d="M71.0837 74.5679H65.5448C65.0351 74.5679 64.6216 73.9921 64.6216 73.2822C64.6216 72.5723 65.0351 71.9965 65.5448 71.9965H71.0837C78.7188 71.9965 84.931 63.3445 84.931 52.7108C84.931 42.0771 78.7188 33.4251 71.0837 33.4251H70.9505C70.6828 33.4251 70.4282 33.2635 70.2528 32.9815C70.0774 32.6996 69.9983 32.3258 70.0366 31.9566C70.119 31.1558 70.1605 30.3513 70.1605 29.568C70.1605 20.3522 64.7764 12.8536 58.1594 12.8536C55.5851 12.8536 53.1302 13.974 51.0596 16.0945C50.6046 16.5601 49.9584 16.3535 49.6953 15.6564C43.8313 0.104897 28.5152 -1.98352 20.5746 11.545C17.2295 17.2443 15.9152 24.6583 16.9684 31.8842C17.0844 32.6822 16.6459 33.4261 16.0637 33.4261H15.6937C8.05864 33.4261 1.8464 42.0781 1.8464 52.7118C1.8464 63.3455 8.05864 71.9975 15.6937 71.9975H21.2326C21.7423 71.9975 22.1558 72.5733 22.1558 73.2832C22.1558 73.9931 21.7423 74.5689 21.2326 74.5689H15.6937C7.0404 74.5689 0 64.7635 0 52.7117C0 40.9979 6.65063 31.4065 14.9691 30.8775C14.1877 23.3808 15.6819 15.8189 19.145 9.91764C27.6466 -4.56772 43.9392 -2.9441 50.8265 13.2081C53.0237 11.2897 55.5379 10.2832 58.1591 10.2832C66.1761 10.2832 72.5287 19.7865 71.9729 30.8895C80.2146 31.5333 86.777 41.0741 86.777 52.7107C86.777 64.7635 79.7366 74.568 71.0832 74.568L71.0837 74.5679Z" fill="#D1512D"/>
<path d="M20.0354 72.5562C20.0354 81.4461 22.6317 89.5134 26.831 95.3619C31.0301 101.21 36.841 104.85 43.2649 104.85C49.6888 104.85 55.4997 101.21 59.6988 95.3618C63.8981 89.5132 66.4944 81.446 66.4944 72.5562C66.4944 63.6662 63.8981 55.599 59.6988 49.7504C55.4997 43.9022 49.6888 40.2626 43.2649 40.2626C36.841 40.2626 31.03 43.9023 26.8309 49.7505C22.6316 55.5991 20.0354 63.6663 20.0354 72.5562ZM22.1828 72.5562C22.1828 64.4315 24.556 57.0702 28.3804 51.7438C32.2051 46.417 37.4721 43.1353 43.2649 43.1353C49.0576 43.1353 54.3246 46.417 58.1493 51.7437C61.9737 57.07 64.347 64.4314 64.347 72.5562C64.347 80.6808 61.9737 88.0422 58.1493 93.3686C54.3246 98.6953 49.0576 101.977 43.2649 101.977C37.4721 101.977 32.2051 98.6953 28.3805 93.3686C24.5561 88.0423 22.1828 80.6809 22.1828 72.5562Z" fill="#D1512D" stroke="#F9FFF9" stroke-width="0.3"/>
<path d="M42.8606 85.4958C42.8606 85.7836 42.9442 86.0504 43.0868 86.249C43.2293 86.4474 43.4394 86.5874 43.6868 86.5874C43.9341 86.5874 44.1443 86.4476 44.2868 86.2493C44.4294 86.0507 44.513 85.7839 44.513 85.4958V61.0221C44.513 60.7343 44.4294 60.4675 44.2868 60.2689C44.1443 60.0705 43.9342 59.9305 43.6868 59.9305C43.4394 59.9305 43.2293 60.0705 43.0868 60.2689C42.9442 60.4675 42.8606 60.7343 42.8606 61.0221V85.4958Z" fill="#D1512D" stroke="#D1512D" stroke-width="0.3"/>
<path d="M43.6867 62.6134L48.4935 69.308C48.6481 69.5232 48.8636 69.6463 49.0935 69.6463L43.6867 62.6134ZM43.6867 62.6134L38.88 69.3079L43.6867 62.6134ZM37.802 67.8891L37.6799 67.8014L43.0866 60.2713C43.2412 60.0556 43.4564 59.9327 43.6865 59.9327C43.9166 59.9327 44.1319 60.0556 44.2867 60.2712L49.6935 67.8014C49.8472 68.0154 49.9198 68.2885 49.9198 68.5547C49.9198 68.8209 49.8472 69.094 49.6935 69.308C49.5388 69.5242 49.3231 69.6463 49.0936 69.6463L37.802 67.8891ZM37.802 67.8891L37.6799 67.8014C37.5262 68.0154 37.4536 68.2885 37.4536 68.5547C37.4536 68.8209 37.5262 69.094 37.6799 69.308C37.8347 69.5236 38.05 69.6465 38.2801 69.6465M37.802 67.8891L38.2801 69.6465M38.2801 69.6465C38.5102 69.6465 38.7254 69.5236 38.8799 69.308L38.2801 69.6465Z" fill="#D1512D" stroke="#D1512D" stroke-width="0.3"/>
</svg>
