<svg width="14" height="14" viewBox="0 0 14 14" fill="none" xmlns="http://www.w3.org/2000/svg">
<path d="M6.04338 0.695008C6.34448 -0.231694 7.65552 -0.231692 7.95662 0.695011L8.91954 3.65856C9.0542 4.07299 9.4404 4.35358 9.87616 4.35358H12.9922C13.9666 4.35358 14.3717 5.60045 13.5834 6.17319L11.0625 8.00476C10.71 8.26089 10.5624 8.7149 10.6971 9.12934L11.66 12.0929C11.9611 13.0196 10.9005 13.7902 10.1122 13.2175L7.59122 11.3859C7.23869 11.1298 6.76131 11.1298 6.40877 11.3859L3.88783 13.2175C3.09953 13.7902 2.03888 13.0196 2.33998 12.0929L3.3029 9.12933C3.43756 8.7149 3.29004 8.26089 2.9375 8.00476L0.416557 6.17319C-0.371743 5.60045 0.0333919 4.35358 1.00778 4.35358H4.12384C4.5596 4.35358 4.94581 4.07299 5.08046 3.65856L6.04338 0.695008Z" fill="#D1512D"/>
</svg>
