<svg width="12" height="14" viewBox="0 0 12 14" fill="none" xmlns="http://www.w3.org/2000/svg">
<path opacity="0.4" d="M6.50145 12.2348C9.09574 12.2348 11.1988 10.0761 11.1988 7.41316C11.1988 4.75026 9.09574 2.59155 6.50145 2.59155C3.90715 2.59155 1.80406 4.75026 1.80406 7.41316C1.80406 10.0761 3.90715 12.2348 6.50145 12.2348Z" fill="#99CA3C"/>
<path d="M6.50151 7.64674C6.27937 7.64674 6.09516 7.45765 6.09516 7.22964V4.44901C6.09516 4.221 6.27937 4.03192 6.50151 4.03192C6.72364 4.03192 6.90786 4.221 6.90786 4.44901V7.22964C6.90786 7.45765 6.72364 7.64674 6.50151 7.64674Z" fill="#99CA3C"/>
<path d="M8.06753 1.91864H4.93594C4.71922 1.91864 4.54585 1.74068 4.54585 1.51823C4.54585 1.29577 4.71922 1.11225 4.93594 1.11225H8.06753C8.28425 1.11225 8.45762 1.29021 8.45762 1.51266C8.45762 1.73511 8.28425 1.91864 8.06753 1.91864Z" fill="#99CA3C"/>
</svg>
