<svg width="20" height="20" viewBox="0 0 20 20" fill="none" xmlns="http://www.w3.org/2000/svg">
<path d="M9.99984 1.66666C7.8165 1.66666 6.0415 3.44166 6.0415 5.62499C6.0415 7.76666 7.7165 9.49999 9.89984 9.57499C9.9665 9.56666 10.0332 9.56666 10.0832 9.57499C10.0998 9.57499 10.1082 9.57499 10.1248 9.57499C10.1332 9.57499 10.1332 9.57499 10.1415 9.57499C12.2748 9.49999 13.9498 7.76666 13.9582 5.62499C13.9582 3.44166 12.1832 1.66666 9.99984 1.66666Z" fill="#B3B3B3"/>
<path d="M14.2333 11.7917C11.9083 10.2417 8.11663 10.2417 5.77497 11.7917C4.71663 12.5 4.1333 13.4583 4.1333 14.4833C4.1333 15.5083 4.71663 16.4583 5.76663 17.1583C6.9333 17.9417 8.46663 18.3333 9.99997 18.3333C11.5333 18.3333 13.0666 17.9417 14.2333 17.1583C15.2833 16.45 15.8666 15.5 15.8666 14.4667C15.8583 13.4417 15.2833 12.4917 14.2333 11.7917Z" fill="#B3B3B3"/>
</svg>
