<svg width="20" height="20" viewBox="0 0 20 20" fill="none" xmlns="http://www.w3.org/2000/svg">
<path d="M9.99994 14.4583C10.7501 14.4583 11.3583 13.8502 11.3583 13.1C11.3583 12.3498 10.7501 11.7417 9.99994 11.7417C9.24975 11.7417 8.6416 12.3498 8.6416 13.1C8.6416 13.8502 9.24975 14.4583 9.99994 14.4583Z" fill="#A7A9AC"/>
<path d="M15.2332 7.94167V6.90001C15.2332 4.65 14.6915 1.66667 9.99984 1.66667C5.30817 1.66667 4.7665 4.65 4.7665 6.90001V7.94167C2.43317 8.23334 1.6665 9.41667 1.6665 12.325V13.875C1.6665 17.2917 2.70817 18.3333 6.12484 18.3333H13.8748C17.2915 18.3333 18.3332 17.2917 18.3332 13.875V12.325C18.3332 9.41667 17.5665 8.23334 15.2332 7.94167ZM9.99984 15.6167C8.60817 15.6167 7.48317 14.4833 7.48317 13.1C7.48317 11.7083 8.6165 10.5833 9.99984 10.5833C11.3832 10.5833 12.5165 11.7167 12.5165 13.1C12.5165 14.4917 11.3915 15.6167 9.99984 15.6167ZM6.12484 7.86667C6.05817 7.86667 5.99984 7.86667 5.93317 7.86667V6.90001C5.93317 4.45834 6.62484 2.83334 9.99984 2.83334C13.3748 2.83334 14.0665 4.45834 14.0665 6.90001V7.87501C13.9998 7.87501 13.9415 7.87501 13.8748 7.87501H6.12484V7.86667Z" fill="#A7A9AC"/>
</svg>
