<svg width="78" height="59" viewBox="0 0 78 59" fill="none" xmlns="http://www.w3.org/2000/svg">
<g clip-path="url(#clip0_69_2162)">
<path opacity="0.03" d="M77.5439 -0.0677394C78.0819 0.575724 78.1439 1.34925 77.7301 2.25284C77.4542 2.84154 76.9921 3.16327 76.3438 3.21804C70.4673 3.7109 63.9702 3.7109 58.6317 5.74397C39.8575 12.8631 31.029 27.1357 32.1464 48.5617C32.2843 51.0807 32.1395 53.3192 31.7118 55.277C31.598 55.7882 31.3039 56.2423 30.8826 56.5574C30.4613 56.8726 29.9404 57.028 29.4139 56.9958C28.8873 56.9636 28.3897 56.7459 28.0105 56.3818C27.6314 56.0177 27.3957 55.5312 27.3459 55.01C24.387 23.6309 40.423 -1.97759 74.9988 -0.971323C76.2127 -0.930251 77.0611 -0.629059 77.5439 -0.0677394Z" fill="white"/>
<path opacity="0.03" d="M75.7979 8.02711C76.1558 8.0388 76.5058 8.13455 76.8196 8.30658C77.1334 8.47862 77.4021 8.72209 77.6039 9.01722C77.8057 9.31236 77.9349 9.65083 77.981 10.0052C78.0272 10.3595 77.9889 10.7197 77.8694 11.0565C77.3088 12.6258 76.0372 13.3831 74.0547 13.3285C49.4026 12.694 40.9938 28.6596 41.7527 50.3361C41.8074 51.7007 41.5407 52.6764 40.9528 53.2631C40.2145 54 39.2916 54.1842 38.1841 53.8158C37.5141 53.5974 37.1723 53.1335 37.1586 52.4239C37.0766 45.2803 36.3588 37.6864 38.8404 31.1159C44.8291 15.1775 57.1482 7.48128 75.7979 8.02711Z" fill="white"/>
<path opacity="0.03" d="M48.1156 36.5967C47.6634 36.3942 47.3105 36.0291 47.1304 35.5775C46.9503 35.1259 46.957 34.6227 47.149 34.1729C52.4549 22.1337 62.059 16.816 75.9614 18.2199C76.5074 18.2723 77.0152 18.5147 77.39 18.9018C77.7648 19.289 77.9812 19.7946 77.9988 20.3244C78.0164 20.8543 77.8341 21.3722 77.4857 21.7818C77.1374 22.1914 76.6468 22.4647 76.1053 22.5509C71.4164 23.3257 66.4601 22.4714 62.4498 24.3985C57.418 26.809 53.7437 30.6168 51.4266 35.8219C50.8645 37.0668 49.7608 37.3251 48.1156 36.5967Z" fill="white"/>
<path opacity="0.03" d="M32.8787 95.7177C33.2984 95.9467 33.6299 96.3091 33.8208 96.7476C34.0118 97.1861 34.0514 97.6758 33.9334 98.1393C33.6576 99.2156 32.9545 99.8296 31.8241 99.9814C31.0934 100.064 30.2869 99.871 29.4046 99.4018C20.8227 94.8691 18.1758 88.246 18.0931 78.2285C17.969 60.7739 17.969 43.4227 18.0931 26.1749C18.0924 25.6161 18.3069 25.0784 18.692 24.6737C19.0771 24.269 19.6032 24.0283 20.161 24.0017C20.8916 23.9741 21.5327 24.2777 22.0842 24.9124C22.4702 25.3539 22.6632 25.9749 22.6632 26.7752C22.6907 43.0708 22.6976 59.3733 22.6839 75.6828C22.6839 85.7417 24.2555 90.9988 32.8787 95.7177Z" fill="white"/>
<path opacity="0.03" d="M54.6819 71.4786C54.4313 52.4884 48.6472 24.0841 75.8141 27.2424C76.1685 27.2858 76.5056 27.4098 76.7966 27.6037C77.0875 27.7977 77.3236 28.0558 77.4846 28.3559C78.5426 30.2725 77.9718 31.4535 75.7723 31.8989C75.1876 32.0203 74.2967 32.0338 73.0994 31.9394C53.4917 30.2185 59.2967 59.878 59.2967 71.2762C59.2972 71.5109 59.248 71.7433 59.1524 71.959C59.0567 72.1746 58.9166 72.369 58.7405 72.5302C58.5645 72.6914 58.3563 72.816 58.1287 72.8963C57.9012 72.9765 57.6591 73.0108 57.4174 72.997L56.1436 72.9363C55.1831 72.8958 54.6958 72.4099 54.6819 71.4786Z" fill="white"/>
<path opacity="0.03" d="M39.7823 105.5C39.9844 105.523 40.1787 105.591 40.3513 105.697C40.5239 105.804 40.6706 105.946 40.7807 106.115C40.8908 106.284 40.9617 106.476 40.9882 106.675C41.0148 106.874 40.9963 107.077 40.9342 107.268L40.42 108.915C40.1731 109.701 39.6315 110.06 38.795 109.992C16.0245 108.02 9.11313 93.6297 9.03085 73.1008C8.98972 60.1059 8.98972 47.0907 9.03085 34.0551C9.03099 33.6561 9.11294 33.26 9.27189 32.89C9.43084 32.52 9.66358 32.1836 9.95648 31.9006C11.2729 30.5997 12.466 30.7081 13.5356 32.2258C13.9332 32.8085 14.1321 33.4521 14.1321 34.1567C14.1595 47.8698 14.1664 61.5897 14.1527 75.3163C14.1321 93.1622 20.7966 103.366 39.7823 105.5Z" fill="white"/>
<path opacity="0.03" d="M70.9557 40.8397H70.3842C69.4589 40.8397 68.9826 41.3044 68.9554 42.2338C68.6289 54.6438 68.3839 67.0744 68.2207 79.5255C68.0165 94.4915 60.9272 104.312 46.9525 108.986C46.5608 109.114 46.1453 109.157 45.7335 109.111C45.3218 109.065 44.9233 108.932 44.5645 108.719C43.1085 107.858 42.8296 106.772 43.7276 105.46C44.0678 104.968 44.5237 104.64 45.0952 104.476C70.3842 96.8286 63.669 66.0152 63.7098 46.17C63.7507 32.5982 77.4668 33.7872 77.4259 42.8283C77.3851 58.1837 79.814 80.1201 74.9766 93.5689C69.4793 108.89 57.6614 117.364 39.523 118.99C39.0182 119.038 38.5128 118.906 38.0949 118.618C37.6771 118.329 37.3735 117.902 37.237 117.412C36.7063 115.594 37.0669 114.637 38.3188 114.542C78.1607 111.179 74.1398 74.7488 72.3641 42.1722C72.3096 41.2839 71.8402 40.8397 70.9557 40.8397Z" fill="white"/>
<path opacity="0.03" d="M48.6008 40H48.3992C47.0742 40 46 41.0939 46 42.4432V54.5568C46 55.9061 47.0742 57 48.3992 57H48.6008C49.9258 57 51 55.9061 51 54.5568V42.4432C51 41.0939 49.9258 40 48.6008 40Z" fill="white"/>
<path opacity="0.03" d="M32.3591 114.619C32.584 114.687 32.7739 114.841 32.8877 115.049C33.0016 115.257 33.0302 115.503 32.9674 115.732L32.4402 117.773C32.1698 118.817 31.5209 119.195 30.4934 118.906C-5.54195 109.055 0.257763 75.4199 0.46055 46.4633C0.46055 45.4878 0.940495 45 1.90036 45H3.58348C4.5163 45 4.98272 45.4809 4.98272 46.4427C4.94216 73.6681 -1.42537 104.521 32.3591 114.619Z" fill="white"/>
<path opacity="0.03" d="M38.5 61C39.8807 61 41 59.8807 41 58.5C41 57.1193 39.8807 56 38.5 56C37.1193 56 36 57.1193 36 58.5C36 59.8807 37.1193 61 38.5 61Z" fill="white"/>
<path opacity="0.03" d="M30.8127 59.043C31.5623 59.0709 31.9509 59.4618 31.9786 60.2156L32.6657 81.91C32.6935 82.4545 32.7976 82.985 32.978 83.5015L33.8733 86.0144C34.0314 86.4655 34.0418 86.9557 33.903 87.4132C33.7642 87.8708 33.4835 88.2716 33.1019 88.5571C32.7203 88.8426 32.2579 88.9978 31.7823 89C31.3067 89.0021 30.8429 88.8512 30.4588 88.5691C25.5453 84.8626 27.2942 66.5397 27.3358 60.5297C27.3358 59.4827 27.8494 58.9732 28.8765 59.0011L30.8127 59.043Z" fill="white"/>
<path opacity="0.03" d="M48.5598 58.9354L48.2724 58.9289C46.957 58.899 45.8664 59.9418 45.8366 61.2579L45.5887 72.1874C45.5588 73.5036 46.601 74.5947 47.9164 74.6246L48.2039 74.6311C49.5193 74.661 50.6098 73.6182 50.6397 72.3021L50.8876 61.3726C50.9174 60.0565 49.8753 58.9653 48.5598 58.9354Z" fill="white"/>
</g>
<defs>
<clipPath id="clip0_69_2162">
<rect width="78" height="59" fill="white"/>
</clipPath>
</defs>
</svg>
