<svg width="24" height="28" viewBox="0 0 24 28" fill="none" xmlns="http://www.w3.org/2000/svg">
<path fill-rule="evenodd" clip-rule="evenodd" d="M21.6702 24.0236C22.4962 22.7636 22.8042 22.1196 23.4341 20.7056C18.7862 18.9417 18.0442 12.3198 22.6362 9.78581C21.2362 8.02184 19.2622 6.99988 17.4003 6.99988C16.0563 6.99988 15.1323 7.34988 14.3063 7.67188C13.6063 7.93787 12.9763 8.17585 12.1923 8.17585C11.3524 8.17585 10.6104 7.90988 9.82639 7.62988C8.9724 7.32189 8.07641 6.99988 6.95643 6.99988C4.87047 6.99988 2.64451 8.27385 1.23054 10.4578C-0.757425 13.5378 -0.407427 19.3057 2.79852 24.2336C3.9465 25.9975 5.48647 27.9715 7.48843 27.9995C8.32842 28.0135 8.8744 27.7615 9.47639 27.4955C10.1624 27.1875 10.9044 26.8515 12.2063 26.8515C13.5083 26.8375 14.2363 27.1875 14.9223 27.4955C15.5103 27.7615 16.0423 28.0135 16.8683 27.9995C18.8982 27.9715 20.5222 25.7875 21.6702 24.0236Z" fill="black"/>
<path fill-rule="evenodd" clip-rule="evenodd" d="M17.1063 0C17.3303 1.53997 16.7003 3.06596 15.8743 4.12994C14.9923 5.27792 13.4523 6.17388 11.9684 6.11788C11.7024 4.63391 12.3884 3.10793 13.2283 2.08595C14.1663 0.965969 15.7483 0.0979983 17.1063 0Z" fill="black"/>
</svg>
