<svg width="34" height="34" viewBox="0 0 34 34" fill="none" xmlns="http://www.w3.org/2000/svg">
<path d="M12.4099 31.5491H12.5941C18.8841 31.5491 21.9158 29.07 22.4399 23.5166C22.4966 22.9358 22.0716 22.4116 21.4766 22.355C20.9099 22.2983 20.3716 22.7375 20.3149 23.3183C19.9041 27.7666 17.8074 29.4241 12.5799 29.4241H12.3958C6.62994 29.4241 4.58994 27.3841 4.58994 21.6183V12.3816C4.58994 6.61581 6.62994 4.57581 12.3958 4.57581H12.5799C17.8358 4.57581 19.9324 6.26164 20.3149 10.795C20.3858 11.3758 20.8816 11.815 21.4766 11.7583C22.0716 11.7158 22.4966 11.1916 22.4541 10.6108C21.9724 4.97247 18.9266 2.45081 12.5941 2.45081H12.4099C5.4541 2.45081 2.4791 5.42581 2.4791 12.3816V21.6183C2.4791 28.5741 5.4541 31.5491 12.4099 31.5491Z" fill="#A7A9AC"/>
<path d="M12.7499 18.0625H28.8716C29.4524 18.0625 29.9341 17.5808 29.9341 17C29.9341 16.4192 29.4524 15.9375 28.8716 15.9375H12.7499C12.1691 15.9375 11.6874 16.4192 11.6874 17C11.6874 17.5808 12.1691 18.0625 12.7499 18.0625Z" fill="#A7A9AC"/>
<path d="M25.7123 22.8083C25.9815 22.8083 26.2506 22.7091 26.4631 22.4966L31.209 17.7508C31.6198 17.34 31.6198 16.66 31.209 16.2491L26.4631 11.5033C26.0523 11.0925 25.3723 11.0925 24.9615 11.5033C24.5506 11.9141 24.5506 12.5941 24.9615 13.005L28.9565 17L24.9615 20.995C24.5506 21.4058 24.5506 22.0858 24.9615 22.4966C25.1598 22.7091 25.4431 22.8083 25.7123 22.8083Z" fill="#A7A9AC"/>
</svg>
