<svg width="33" height="33" viewBox="0 0 33 33" fill="none" xmlns="http://www.w3.org/2000/svg">
<path d="M27.4587 12.0312H23.4163C21.67 12.0312 20.625 10.9862 20.625 9.24V5.1975C20.625 3.45125 21.67 2.40625 23.4163 2.40625H27.4587C29.205 2.40625 30.25 3.45125 30.25 5.1975V9.24C30.25 10.9862 29.205 12.0312 27.4587 12.0312ZM27.7613 7.48C27.5963 7.315 27.3762 7.2325 27.1562 7.2325C26.9363 7.2325 26.7162 7.315 26.5512 7.48L26.3037 7.7275V4.6475C26.3037 4.16625 25.9187 3.78125 25.4375 3.78125C24.9563 3.78125 24.5713 4.16625 24.5713 4.6475V7.7275L24.3238 7.48C23.9938 7.15 23.4437 7.15 23.1137 7.48C22.7837 7.81 22.7837 8.36 23.1137 8.69L24.8325 10.4088C24.9012 10.4775 24.9975 10.5325 25.0938 10.5738C25.1213 10.5875 25.1487 10.5875 25.1762 10.6012C25.245 10.6287 25.3137 10.6425 25.3962 10.6425C25.4237 10.6425 25.4513 10.6425 25.4788 10.6425C25.575 10.6425 25.6575 10.6287 25.7537 10.5875C25.7675 10.5875 25.7675 10.5875 25.7812 10.5875C25.8775 10.5462 25.96 10.4913 26.0288 10.4225C26.0425 10.4087 26.0425 10.4088 26.0563 10.4088L27.775 8.69C28.105 8.36 28.105 7.81 27.7613 7.48Z" fill="#99CA3C"/>
<path d="M2.75 15.7575V22.6325C2.75 25.7812 5.29375 28.325 8.4425 28.325H24.5438C27.6925 28.325 30.25 25.7675 30.25 22.6188V15.7575C30.25 14.8363 29.5075 14.0938 28.5863 14.0938H4.41375C3.4925 14.0937 2.75 14.8363 2.75 15.7575ZM11 23.7188H8.25C7.68625 23.7188 7.21875 23.2513 7.21875 22.6875C7.21875 22.1237 7.68625 21.6562 8.25 21.6562H11C11.5638 21.6562 12.0312 22.1237 12.0312 22.6875C12.0312 23.2513 11.5638 23.7188 11 23.7188ZM19.9375 23.7188H14.4375C13.8737 23.7188 13.4062 23.2513 13.4062 22.6875C13.4062 22.1237 13.8737 21.6562 14.4375 21.6562H19.9375C20.5012 21.6562 20.9688 22.1237 20.9688 22.6875C20.9688 23.2513 20.5012 23.7188 19.9375 23.7188Z" fill="#99CA3C"/>
<path d="M18.5625 6.3388V10.3675C18.5625 11.2888 17.82 12.0313 16.8988 12.0313H4.41375C3.47875 12.0313 2.75 11.2613 2.75 10.34C2.76375 8.7863 3.3825 7.37005 4.41375 6.3388C5.445 5.30755 6.875 4.67505 8.4425 4.67505H16.8988C17.82 4.67505 18.5625 5.41755 18.5625 6.3388Z" fill="#99CA3C"/>
</svg>
