<svg width="25" height="25" viewBox="0 0 25 25" fill="none" xmlns="http://www.w3.org/2000/svg">
<path d="M16.25 22.5H20C20.663 22.5 21.2989 22.2366 21.7678 21.7678C22.2366 21.2989 22.5 20.663 22.5 20V16.25C22.5 15.9185 22.6317 15.6005 22.8661 15.3661C23.1005 15.1317 23.4185 15 23.75 15C24.0815 15 24.3995 15.1317 24.6339 15.3661C24.8683 15.6005 25 15.9185 25 16.25V20C25 21.3261 24.4732 22.5979 23.5355 23.5355C22.5979 24.4732 21.3261 25 20 25H5C3.67392 25 2.40215 24.4732 1.46447 23.5355C0.526784 22.5979 0 21.3261 0 20V16.25C0 15.9185 0.131696 15.6005 0.366117 15.3661C0.600537 15.1317 0.918479 15 1.25 15C1.58152 15 1.89946 15.1317 2.13388 15.3661C2.3683 15.6005 2.5 15.9185 2.5 16.25V20C2.5 20.663 2.76339 21.2989 3.23223 21.7678C3.70107 22.2366 4.33696 22.5 5 22.5H8.75C9.08152 22.5 9.39946 22.6317 9.63388 22.8661C9.8683 23.1005 10 23.4185 10 23.75C10 24.0815 9.8683 24.3995 9.63388 24.6339C9.39946 24.8683 9.08152 25 8.75 25H16.25C15.9185 25 15.6005 24.8683 15.3661 24.6339C15.1317 24.3995 15 24.0815 15 23.75C15 23.4185 15.1317 23.1005 15.3661 22.8661C15.6005 22.6317 15.9185 22.5 16.25 22.5ZM2.5 8.75C2.5 9.08152 2.3683 9.39946 2.13388 9.63388C1.89946 9.8683 1.58152 10 1.25 10C0.918479 10 0.600537 9.8683 0.366117 9.63388C0.131696 9.39946 0 9.08152 0 8.75V5C0 3.67392 0.526784 2.40215 1.46447 1.46447C2.40215 0.526784 3.67392 0 5 0L8.75 0C9.08152 0 9.39946 0.131696 9.63388 0.366117C9.8683 0.600537 10 0.918479 10 1.25C10 1.58152 9.8683 1.89946 9.63388 2.13388C9.39946 2.3683 9.08152 2.5 8.75 2.5H5C4.33696 2.5 3.70107 2.76339 3.23223 3.23223C2.76339 3.70107 2.5 4.33696 2.5 5V8.75ZM22.5 8.75V5C22.5 4.33696 22.2366 3.70107 21.7678 3.23223C21.2989 2.76339 20.663 2.5 20 2.5H16.25C15.9185 2.5 15.6005 2.3683 15.3661 2.13388C15.1317 1.89946 15 1.58152 15 1.25C15 0.918479 15.1317 0.600537 15.3661 0.366117C15.6005 0.131696 15.9185 0 16.25 0L20 0C21.3261 0 22.5979 0.526784 23.5355 1.46447C24.4732 2.40215 25 3.67392 25 5V8.75C25 9.08152 24.8683 9.39946 24.6339 9.63388C24.3995 9.8683 24.0815 10 23.75 10C23.4185 10 23.1005 9.8683 22.8661 9.63388C22.6317 9.39946 22.5 9.08152 22.5 8.75Z" fill="#99CA3C"/>
</svg>
