<svg width="48" height="36" viewBox="0 0 48 36" fill="none" xmlns="http://www.w3.org/2000/svg">
<g opacity="0.64">
<circle opacity="0.2" cx="16" cy="20" r="16" fill="black"/>
<circle opacity="0.2" cx="32" cy="20" r="16" fill="black"/>
<path d="M41.6551 0.213466C41.7773 0.360803 41.7914 0.537923 41.6974 0.744823C41.6347 0.879621 41.5298 0.953291 41.3825 0.96583C40.0478 1.07868 38.5722 1.07868 37.3597 1.54421C33.0956 3.17433 31.0904 6.44241 31.3442 11.3484C31.3755 11.9253 31.3426 12.4378 31.2455 12.8861C31.2196 13.0032 31.1528 13.1071 31.0571 13.1793C30.9614 13.2514 30.8431 13.287 30.7235 13.2797C30.604 13.2723 30.4909 13.2224 30.4048 13.1391C30.3187 13.0557 30.2652 12.9443 30.2539 12.825C29.5818 5.63989 33.224 -0.223845 41.0771 0.00656626C41.3528 0.0159708 41.5454 0.0849368 41.6551 0.213466Z" fill="white"/>
<path d="M41.2976 2.07086C41.3796 2.07355 41.4598 2.09555 41.5317 2.13507C41.6036 2.17459 41.6652 2.23052 41.7115 2.29832C41.7577 2.36612 41.7873 2.44388 41.7979 2.52528C41.8084 2.60668 41.7997 2.68943 41.7723 2.7668C41.6438 3.12731 41.3525 3.30129 40.8982 3.28875C35.2492 3.14298 33.3224 6.81076 33.4963 11.7905C33.5088 12.1039 33.4477 12.3281 33.313 12.4629C33.1438 12.6322 32.9323 12.6745 32.6786 12.5898C32.525 12.5397 32.4467 12.4331 32.4436 12.2701C32.4248 10.629 32.2603 8.88446 32.8289 7.37503C34.2012 3.71353 37.0241 1.94547 41.2976 2.07086Z" fill="white"/>
<path d="M35.0142 8.64464C34.9109 8.59671 34.8302 8.51029 34.7891 8.4034C34.7479 8.29651 34.7494 8.17742 34.7933 8.07096C36.0058 5.22138 38.2005 3.96274 41.3775 4.29503C41.5023 4.30744 41.6183 4.3648 41.7039 4.45644C41.7896 4.54808 41.839 4.66775 41.8431 4.79315C41.8471 4.91856 41.8054 5.04116 41.7258 5.13811C41.6462 5.23505 41.5341 5.29975 41.4104 5.32013C40.3389 5.50352 39.2062 5.30132 38.2898 5.75744C37.14 6.32798 36.3003 7.22925 35.7708 8.46125C35.6424 8.75592 35.3902 8.81705 35.0142 8.64464Z" fill="white"/>
<path d="M31.584 22.0884C31.6794 22.1405 31.7547 22.2228 31.7981 22.3224C31.8415 22.422 31.8505 22.5333 31.8237 22.6386C31.761 22.8831 31.6012 23.0226 31.3443 23.0571C31.1783 23.0759 30.995 23.032 30.7945 22.9254C28.8441 21.8956 28.2426 20.3909 28.2238 18.115C28.1956 14.1494 28.1956 10.2074 28.2238 6.28881C28.2236 6.16183 28.2724 6.03968 28.3599 5.94774C28.4474 5.85579 28.567 5.80112 28.6937 5.79507C28.8598 5.7888 29.0055 5.85777 29.1308 6.00197C29.2185 6.10228 29.2624 6.24335 29.2624 6.42517C29.2687 10.1274 29.2702 13.8313 29.2671 17.5366C29.2671 19.8219 29.6243 21.0163 31.584 22.0884Z" fill="white"/>
<path d="M36.57 16.6243C36.5136 12.2136 35.2118 5.61633 41.326 6.34989C41.4057 6.35996 41.4816 6.38876 41.5471 6.43381C41.6126 6.47885 41.6657 6.5388 41.7019 6.60851C41.9401 7.05366 41.8116 7.32796 41.3166 7.43141C41.185 7.45962 40.9845 7.46276 40.715 7.44081C36.3021 7.04112 37.6086 13.9299 37.6086 16.5773C37.6087 16.6319 37.5976 16.6858 37.5761 16.7359C37.5546 16.786 37.523 16.8312 37.4834 16.8686C37.4438 16.906 37.3969 16.935 37.3457 16.9536C37.2945 16.9723 37.24 16.9802 37.1856 16.977L36.8989 16.9629C36.6828 16.9535 36.5731 16.8407 36.57 16.6243Z" fill="white"/>
<path d="M33.1252 24.4584C33.1714 24.4638 33.2158 24.4793 33.2552 24.504C33.2947 24.5286 33.3282 24.5616 33.3533 24.6007C33.3785 24.6399 33.3947 24.6841 33.4008 24.7302C33.4068 24.7763 33.4026 24.8232 33.3884 24.8675L33.2709 25.2483C33.2145 25.4302 33.0908 25.5132 32.8997 25.4976C27.6972 25.0414 26.1181 21.7122 26.0993 16.9629C26.0899 13.9566 26.0899 10.9456 26.0993 7.92987C26.0994 7.83756 26.1181 7.74592 26.1544 7.66033C26.1907 7.57473 26.2439 7.49691 26.3108 7.43143C26.6116 7.13048 26.8842 7.15556 27.1285 7.50667C27.2194 7.64147 27.2648 7.79037 27.2648 7.95338C27.2711 11.1258 27.2727 14.2999 27.2695 17.4755C27.2648 21.6041 28.7875 23.9646 33.1252 24.4584Z" fill="white"/>
<path d="M40.2265 9.60865H40.0949C39.8819 9.60865 39.7722 9.71523 39.766 9.9284C39.6908 12.7748 39.6344 15.626 39.5968 18.4818C39.5498 21.9145 37.9174 24.1669 34.6998 25.239C34.6096 25.2685 34.5139 25.2783 34.4191 25.2678C34.3243 25.2572 34.2325 25.2266 34.1499 25.1779C33.8147 24.9804 33.7505 24.7312 33.9572 24.4302C34.0356 24.3174 34.1405 24.2421 34.2721 24.2045C40.0949 22.4506 38.5488 15.383 38.5582 10.8312C38.5676 7.71833 41.7257 7.99106 41.7163 10.0648C41.7069 13.5868 42.2662 18.6182 41.1523 21.7029C39.8866 25.2171 37.1655 27.1607 32.9891 27.5337C32.8729 27.5446 32.7565 27.5144 32.6603 27.4482C32.5641 27.382 32.4942 27.2841 32.4628 27.1716C32.3406 26.7547 32.4236 26.5353 32.7118 26.5133C41.8855 25.7421 40.9597 17.3862 40.5508 9.91429C40.5383 9.71053 40.4302 9.60865 40.2265 9.60865Z" fill="white"/>
<path d="M35.0521 9.33124H35.0051C34.6962 9.33124 34.4458 9.58177 34.4458 9.89081V12.6651C34.4458 12.9742 34.6962 13.2247 35.0051 13.2247H35.0521C35.3609 13.2247 35.6113 12.9742 35.6113 12.6651V9.89081C35.6113 9.58177 35.3609 9.33124 35.0521 9.33124Z" fill="white"/>
<path d="M31.4992 26.3534C31.5513 26.3687 31.5954 26.4039 31.6217 26.4514C31.6481 26.4989 31.6548 26.5549 31.6402 26.6073L31.518 27.0728C31.4554 27.3111 31.305 27.3973 31.0669 27.3315C22.7157 25.0838 24.0597 17.4097 24.1067 10.803C24.1067 10.5804 24.218 10.4691 24.4404 10.4691H24.8305C25.0467 10.4691 25.1547 10.5788 25.1547 10.7983C25.1453 17.01 23.6697 24.0493 31.4992 26.3534Z" fill="white"/>
<path d="M32.9045 14.1698C33.2133 14.1698 33.4637 13.9193 33.4637 13.6102C33.4637 13.3012 33.2133 13.0507 32.9045 13.0507C32.5956 13.0507 32.3452 13.3012 32.3452 13.6102C32.3452 13.9193 32.5956 14.1698 32.9045 14.1698Z" fill="white"/>
<path d="M30.9969 13.77C31.1661 13.7763 31.2538 13.8641 31.2601 14.0333L31.4151 18.9049C31.4214 19.0272 31.4449 19.1463 31.4856 19.2623L31.6877 19.8265C31.7234 19.9279 31.7258 20.0379 31.6944 20.1407C31.6631 20.2434 31.5997 20.3334 31.5136 20.3975C31.4275 20.4616 31.3231 20.4965 31.2157 20.497C31.1084 20.4975 31.0037 20.4636 30.917 20.4002C29.8079 19.5679 30.2026 15.4534 30.212 14.1039C30.212 13.8688 30.328 13.7544 30.5598 13.7606L30.9969 13.77Z" fill="white"/>
<path d="M35.1118 13.7149L35.046 13.7134C34.745 13.7065 34.4954 13.9451 34.4886 14.2463L34.4319 16.7473C34.4251 17.0485 34.6635 17.2981 34.9645 17.305L35.0303 17.3065C35.3313 17.3133 35.5809 17.0747 35.5877 16.7735L35.6444 14.2726C35.6512 13.9714 35.4128 13.7217 35.1118 13.7149Z" fill="white"/>
<path d="M37.3551 17.5272C37.4346 17.5477 37.5053 17.5938 37.5562 17.6583C37.6072 17.7229 37.6355 17.8023 37.637 17.8845C37.6997 21.3235 36.0345 23.1715 32.6414 23.4285C32.521 23.4384 32.4009 23.408 32.2997 23.3421C32.1985 23.2763 32.122 23.1787 32.0822 23.0646C32.0424 22.9506 32.0416 22.8266 32.0799 22.712C32.1181 22.5975 32.1933 22.4988 32.2936 22.4316C32.5599 22.253 32.8591 22.1981 33.1912 22.2671C33.351 22.3015 33.5092 22.2937 33.6659 22.2436C35.6021 21.6197 36.564 20.2811 36.5514 18.2278C36.5514 17.9457 36.5953 17.7545 36.683 17.6541C36.8271 17.488 37.0512 17.4457 37.3551 17.5272Z" fill="white"/>
<path d="M34.9159 17.8516C35.1853 17.8485 35.3843 17.9347 35.5127 18.1103C35.6067 18.2419 35.6396 18.4363 35.6114 18.6934C35.3953 20.5774 34.2846 21.4536 32.2794 21.3219C32.1951 21.316 32.1161 21.2782 32.0585 21.2162C32.0009 21.1542 31.969 21.0727 31.9692 20.9881V20.5225C31.969 20.4848 31.9768 20.4475 31.992 20.413C32.0072 20.3785 32.0294 20.3476 32.0574 20.3223C32.0853 20.297 32.1183 20.2779 32.1541 20.2662C32.19 20.2545 32.2278 20.2505 32.2653 20.2545C33.7535 20.4301 34.4882 19.7843 34.4694 18.3172C34.4682 18.2573 34.4787 18.1977 34.5005 18.1419C34.5223 18.0861 34.5548 18.0351 34.5963 17.9919C34.6377 17.9486 34.6873 17.914 34.7421 17.8899C34.797 17.8659 34.856 17.8529 34.9159 17.8516Z" fill="white"/>
</g>
</svg>
