<svg width="33" height="33" viewBox="0 0 33 33" fill="none" xmlns="http://www.w3.org/2000/svg">
<path d="M23.375 5.5H9.625C5.5 5.5 2.75 7.5625 2.75 12.375V17.27C2.75 17.7788 3.2725 18.095 3.72625 17.8888C5.07375 17.27 6.6275 17.0363 8.26375 17.325C11.88 17.9713 14.5337 21.3263 14.4375 24.9975C14.4237 25.575 14.3412 26.1388 14.19 26.6887C14.08 27.115 14.4238 27.5138 14.8638 27.5138H23.375C27.5 27.5138 30.25 25.4513 30.25 20.6388V12.375C30.25 7.5625 27.5 5.5 23.375 5.5ZM16.5 19.9375C14.6025 19.9375 13.0625 18.3975 13.0625 16.5C13.0625 14.6025 14.6025 13.0625 16.5 13.0625C18.3975 13.0625 19.9375 14.6025 19.9375 16.5C19.9375 18.3975 18.3975 19.9375 16.5 19.9375ZM26.4688 19.25C26.4688 19.8138 26.0012 20.2812 25.4375 20.2812C24.8738 20.2812 24.4062 19.8138 24.4062 19.25V13.75C24.4062 13.1863 24.8738 12.7188 25.4375 12.7188C26.0012 12.7188 26.4688 13.1863 26.4688 13.75V19.25Z" fill="white"/>
<path d="M6.875 19.25C5.15625 19.25 3.6025 20.0612 2.59875 21.2987C1.82875 22.2475 1.375 23.4437 1.375 24.75C1.375 27.7887 3.85 30.25 6.875 30.25C9.2675 30.25 11.3163 28.7238 12.0588 26.5787C12.265 26.015 12.375 25.3962 12.375 24.75C12.375 21.725 9.91375 19.25 6.875 19.25ZM10.12 27.1425C10.0925 27.225 10.0375 27.3075 9.9825 27.3625L8.9925 28.3388C8.86875 28.4763 8.70375 28.5312 8.525 28.5312C8.34625 28.5312 8.1675 28.4763 8.04375 28.3388C7.82375 28.1325 7.79625 27.8025 7.93375 27.555H5.17C4.29 27.555 3.575 26.84 3.575 25.9463V25.8088C3.575 25.4238 3.8775 25.135 4.24875 25.135C4.62 25.135 4.9225 25.4238 4.9225 25.8088V25.9463C4.9225 26.0975 5.0325 26.2212 5.18375 26.2212H7.9475C7.81 25.96 7.8375 25.6437 8.0575 25.4237C8.31875 25.1625 8.745 25.1625 8.9925 25.4237L9.9825 26.4137C10.0375 26.4687 10.0925 26.5513 10.1337 26.6338C10.1888 26.785 10.1888 26.9775 10.12 27.1425ZM10.175 23.6912C10.175 24.0762 9.8725 24.365 9.50125 24.365C9.13 24.365 8.8275 24.0762 8.8275 23.6912V23.5537C8.8275 23.4025 8.7175 23.2788 8.56625 23.2788H5.81625C5.95375 23.54 5.92625 23.8563 5.70625 24.0763C5.5825 24.2 5.4175 24.2687 5.225 24.2687C5.06 24.2687 4.88125 24.2 4.7575 24.0763L3.7675 23.0863C3.7125 23.0313 3.6575 22.9487 3.61625 22.8662C3.56125 22.7012 3.56125 22.5225 3.61625 22.3575C3.6575 22.2888 3.69875 22.1925 3.7675 22.1375L4.7575 21.1613C5.01875 20.8863 5.445 20.8863 5.6925 21.1613C5.9125 21.3675 5.94 21.6975 5.8025 21.945H8.56625C9.44625 21.945 10.1613 22.66 10.1613 23.5537V23.6912H10.175Z" fill="white"/>
</svg>
