<svg width="195" height="195" viewBox="0 0 195 195" fill="none" xmlns="http://www.w3.org/2000/svg">
<path d="M0 171.465V147.93H47.0682V194.998H0V171.465ZM40.345 171.465V154.655H6.72322V188.275H40.345V171.465ZM13.4483 171.465V161.382H33.6142V181.548H13.4483V171.465ZM60.5166 191.631V188.269H53.7991V174.821H60.5223V154.655H67.2455V147.932H53.7991V141.209H26.8967V134.482H33.6199V127.758H20.1716V141.207H13.4483V134.482H0V127.758H13.4483V114.31H6.72322V121.033H0V107.585H13.4483V114.308H20.1716V121.031H26.8948V114.31H33.618V121.033H47.0663V114.31H40.345V107.585H20.1792V100.862H40.345V94.1308H20.1792V87.4133H13.4483V94.1308H0V73.9649H6.72322V80.6881H47.0682V73.9649H40.345V67.2417H26.8967V73.9649H20.1716V67.2417H6.72322V53.7991H20.1716V67.2474H26.8948V60.5166H40.3431V53.7991H47.0663V60.5223H40.345V67.2455H47.0682V73.9649H53.7991V60.5166H60.5223V53.7991H53.7991V33.6332H67.2474V40.3564H73.9649V47.0797H67.2417V53.7991H73.9649V94.1308H60.5166V87.4133H53.7991V94.1308H47.0682V100.854H40.345V107.577H47.0682V114.3H53.7991V121.024H67.2474V114.31H60.5166V107.585H53.7991V100.862H67.2474V114.31H73.9649V100.862H80.6881V114.31H87.4114V94.1308H94.1308V87.4133H100.854V94.1308H94.1308V100.854H100.854V107.577H121.02V100.862H114.31V94.1308H107.585V80.6881H100.862V73.9649H107.585V67.2417H114.308V60.5166H107.585V53.7991H100.862V67.2474H94.1308V60.5166H87.4133V67.2398H80.6881V60.5166H87.4114V53.7991H80.6881V33.6332H73.9649V26.8967H80.6881V33.6199H87.4114V6.72322H94.1308V20.1716H107.579V13.4483H100.862V0H114.31V6.72322H107.585V13.4483H121.033V6.72322H127.756V0H141.205V20.1659H127.756V13.4483H121.033V26.8967H127.756V47.0625H134.48V40.345H141.203V73.9649H154.651V67.2417H147.928V53.7991H161.376V73.9649H174.825V67.2417H168.101V53.7991H174.825V67.2474H181.548V60.5166H194.996V73.9649H188.273V67.2417H181.55V73.9649H174.827V94.1308H181.55V100.854H174.827V107.577H161.378V114.3H154.655V121.024H141.207V114.31H134.482V107.585H127.758V121.033H134.482V127.756H154.647V134.48H168.096V127.756H161.372V121.033H168.096V114.31H174.819V121.033H181.542V127.756H188.265V114.31H181.542V107.585H194.99V127.751H188.267V141.199H194.99V154.647H188.267V174.813H194.99V181.536H174.825V194.985H154.659V188.262H168.107V181.538H154.659V168.09H147.936V181.538H141.212V188.262H147.936V194.985H134.482V174.819H127.758V188.267H121.035V181.544H114.31V154.655H121.033V174.821H127.756V154.655H134.48V141.207H127.756V134.482H121.033V127.758H127.756V121.035H121.033V114.31H114.31V141.207H121.033V147.93H107.585V161.378H100.862V174.827H107.585V181.55H100.862V188.273H114.31V194.996H100.862V188.273H94.1308V181.55H87.4133V194.998H60.5166V191.636V191.631ZM80.6824 181.548V174.825H87.4057V154.659H73.9649V161.382H80.6881V168.105H67.2417V174.828H60.5166V181.552H67.2398V188.275H80.6881V181.552L80.6824 181.548ZM174.821 174.825V168.101H181.544V154.653H188.267V147.93H181.544V127.764H174.821V147.93H181.544V154.653H174.821V161.376H168.098V181.542H174.821V174.819V174.825ZM141.201 171.463V168.101H134.482V174.825H141.205V171.465L141.201 171.463ZM100.856 158.015V154.653H94.1308V161.376H100.854V158.015H100.856ZM161.372 151.291V141.209H141.207V161.374H161.372V151.291ZM147.924 151.291V147.93H154.647V154.653H147.924V151.291ZM94.1308 144.568V141.207H107.579V134.482H94.1308V127.758H87.4133V134.482H94.1308V141.205H80.6881V134.482H73.9649V141.205H67.2417V134.482H60.5166V127.758H53.7991V121.035H47.0682V127.758H40.345V134.482H47.0682V127.758H53.7991V134.482H60.5223V141.205H67.2455V147.928H94.1308V144.566V144.568ZM73.9649 124.402V121.041H67.2417V127.764H73.9649V124.402ZM107.585 121.041V114.31H94.1308V121.033H100.854V127.756H107.577V121.033L107.585 121.041ZM147.93 110.958V107.585H141.207V114.308H147.93V110.948V110.958ZM161.378 104.235V100.862H168.101V80.6958H161.378V87.419H154.655V94.1308H147.932V87.4133H134.482V80.6881H127.758V73.9649H134.482V53.7991H127.758V47.0682H121.035V40.345H114.31V47.0682H107.585V26.9024H114.308V33.6256H121.031V26.8967H114.31V20.1716H107.585V26.8948H100.862V47.0606H107.585V53.7991H114.308V47.0682H121.031V67.2341H114.31V73.9649H107.585V80.6881H114.308V94.1308H121.031V87.4133H134.48V94.1308H141.203V100.854H154.651V107.577H161.374V104.223L161.378 104.235ZM154.655 97.5114V94.1308H161.378V100.854H154.655V97.5V97.5114ZM47.0682 90.7749V87.4133H53.7991V80.6881H47.0682V87.4114H40.345V94.1308H47.0682V90.7749ZM67.2341 77.3265V73.9649H60.5166V80.6881H67.2398V77.3265H67.2341ZM67.2341 43.7066V40.345H60.5166V47.0682H67.2398V43.7066H67.2341ZM94.1308 40.345V33.6199H87.4133V47.0682H94.1308V40.345ZM134.482 10.0848V6.72322H127.758V13.4483H134.482V10.0848ZM188.275 191.636V188.275H194.998V194.998H188.275V191.636ZM188.275 94.1365V87.4133H181.552V80.6881H188.275V87.4114H194.998V100.86H188.275V94.1308V94.1365ZM0 23.5332V0H47.0682V47.0682H0V23.5332ZM40.345 23.5332V6.72322H6.72322V40.345H40.345V23.5332ZM13.4483 23.5332V13.4503H33.6142V33.6161H13.4483V23.5332ZM147.932 23.5332V0H195V47.0682H147.93V23.5332H147.932ZM188.277 23.5332V6.72322H154.655V40.345H188.275V23.5332H188.277ZM161.38 23.5332V13.4503H181.546V33.6161H161.38V23.5332ZM53.7934 23.5332V20.1716H60.5166V26.8948H53.7991V23.5332H53.7934ZM67.2417 16.81V13.4483H60.5166V0H67.2398V6.72322H73.9649V0H80.6881V6.72322H73.9649V20.1716H67.2417V16.81Z" fill="#99CA3C"/>
</svg>
