<svg width="18" height="17" viewBox="0 0 18 17" fill="none" xmlns="http://www.w3.org/2000/svg">
<path fill-rule="evenodd" clip-rule="evenodd" d="M13.05 0C11.484 0 9.981 0.729 9 1.881C8.019 0.729 6.516 0 4.95 0C2.178 0 0 2.178 0 4.95C0 8.352 3.06 11.124 7.695 15.336L9 16.515L10.305 15.327C14.94 11.124 18 8.352 18 4.95C18 2.178 15.822 0 13.05 0ZM9.08999 13.995L8.99999 14.085L8.90999 13.995C4.62599 10.116 1.79999 7.55103 1.79999 4.95003C1.79999 3.15003 3.14999 1.80003 4.94999 1.80003C6.33599 1.80003 7.68599 2.69103 8.16299 3.92403H9.84599C10.314 2.69103 11.664 1.80003 13.05 1.80003C14.85 1.80003 16.2 3.15003 16.2 4.95003C16.2 7.55103 13.374 10.116 9.08999 13.995Z" fill="#FF8C00"/>
</svg>
