<svg width="27" height="24" viewBox="0 0 27 24" fill="none" xmlns="http://www.w3.org/2000/svg">
<path d="M18.9204 0.5C17.7081 0.5 16.5494 0.767264 15.4767 1.29442C14.7464 1.65319 14.0756 2.12988 13.5 2.69544C12.9244 2.12988 12.2536 1.65319 11.5233 1.29442C10.4505 0.767264 9.29186 0.5 8.07956 0.5C3.90021 0.5 0.5 3.77001 0.5 7.78939C0.5 10.6362 2.06338 13.6598 5.14666 16.7762C7.72103 19.3783 10.8729 21.5473 13.0636 22.9088L13.5 23.18L13.9364 22.9088C16.1271 21.5474 19.279 19.3783 21.8534 16.7762C24.9367 13.6598 26.5 10.6362 26.5 7.78939C26.5 3.77001 23.0998 0.5 18.9204 0.5ZM20.6883 15.7101C18.3875 18.0355 15.585 20.0125 13.5 21.3356C11.415 20.0124 8.61248 18.0355 6.31178 15.7101C3.52249 12.8909 2.10825 10.226 2.10825 7.78939C2.10825 4.62285 4.787 2.04667 8.07962 2.04667C9.97526 2.04667 11.7166 2.88408 12.8571 4.34414L13.5 5.16722L14.1429 4.34414C15.2834 2.88408 17.0247 2.04667 18.9204 2.04667C22.213 2.04667 24.8918 4.62285 24.8918 7.78939C24.8918 10.226 23.4775 12.8909 20.6883 15.7101Z" fill="#BDBDBD" stroke="#BDBDBD"/>
</svg>
