<svg width="7" height="5" viewBox="0 0 7 5" fill="none" xmlns="http://www.w3.org/2000/svg">
<path d="M3.12813 4.35313C3.21563 4.4625 3.34688 4.50625 3.5 4.50625C3.63125 4.50625 3.7625 4.4625 3.87188 4.35313L6.84688 1.37813C6.93438 1.29063 7 1.15938 7 1.00625C7 0.875 6.93438 0.74375 6.84688 0.634375L6.34375 0.153125C6.23438 0.065625 6.10313 0 5.97188 0C5.81875 0 5.6875 0.065625 5.6 0.153125L3.5 2.25313L1.4 0.153125C1.29063 0.065625 1.15938 0 1.02813 0C0.875 0 0.74375 0.065625 0.65625 0.153125L0.153125 0.634375C0.04375 0.74375 0 0.875 0 1.00625C0 1.15938 0.04375 1.29063 0.153125 1.37813L3.12813 4.35313Z" fill="#333333"/>
</svg>
