<svg width="61" height="17" viewBox="0 0 61 17" fill="none" xmlns="http://www.w3.org/2000/svg">
<path d="M0.00552796 0.0115188C3.37207 -0.0104499 6.73863 0.00624633 10.1061 0.00362766C10.1198 1.23212 10.1195 2.4606 10.1052 3.68909C8.26358 3.69965 6.42135 3.69965 4.57854 3.68909C4.56575 4.45448 4.57031 5.21987 4.5758 5.98525C6.27138 5.97383 7.96607 5.98263 9.66167 5.97911C9.66896 6.65572 9.66441 7.33238 9.66076 8.00903C10.0504 7.45535 10.5213 6.95897 11.0588 6.53537C11.9535 5.89553 13.0104 5.49914 14.1188 5.38772C15.2148 5.32709 16.3482 5.31039 17.3886 5.6979C18.7173 6.11444 19.8215 7.08017 20.4613 8.26737C20.6342 8.59904 20.7881 8.93963 20.9221 9.28759C21.3693 7.87456 22.3859 6.61621 23.7567 5.93427C25.0089 5.33388 26.4518 5.21602 27.7912 5.60474C28.4538 5.80598 29.0214 6.2076 29.495 6.68915C29.5014 4.45976 29.4978 2.23126 29.496 0.00187016C30.8384 0.00714265 32.1799 -0.00954477 33.5214 0.0124239C33.4913 3.19171 33.5177 6.37189 33.5086 9.55121C33.5141 11.8228 33.4995 14.0952 33.5159 16.3668C32.1945 16.4072 30.873 16.3835 29.5516 16.3826C29.5443 16.0267 29.5422 15.6714 29.5452 15.3167L29.5115 15.365C28.9046 16.1322 28.0513 16.7429 27.0548 16.9292C25.7941 17.1332 24.4995 16.884 23.4171 16.2288C21.8904 15.3062 20.8747 13.6743 20.6794 11.9572C18.1835 11.9502 15.6875 11.959 13.1916 11.9519C13.052 11.9607 12.9005 11.937 12.7727 12.0021C12.8002 12.3551 12.9095 12.6976 13.0927 13.0045C13.276 13.3114 13.5283 13.5748 13.8313 13.7753C14.523 14.2367 15.4584 14.2569 16.2196 13.9485C16.5527 13.778 16.7881 13.481 17.0263 13.2077C18.324 13.2244 19.6226 13.2006 20.9203 13.2156C20.4038 14.5372 19.4182 15.7279 18.0785 16.3431C16.8356 16.9283 15.3973 17.0531 14.0375 16.8888C12.4369 16.6849 10.9165 15.8597 9.96738 14.5926C9.21108 13.5884 8.81772 12.3731 8.84763 11.133C8.82392 10.5925 8.93159 10.06 8.9973 9.52573C7.52347 9.52135 6.04963 9.52487 4.5758 9.52396C4.57031 11.8201 4.57001 14.1166 4.57489 16.4133C3.05177 16.4362 1.52772 16.4133 0.00370278 16.4248C-0.0017819 10.9537 -0.00117351 5.4826 0.00552796 0.0115188ZM13.8249 8.22254C13.354 8.52397 13.0885 9.02483 12.916 9.52749C14.3451 9.53628 15.7724 9.56529 17.2006 9.52749C17.0601 9.12592 16.9104 8.69972 16.5727 8.40798C15.8426 7.7612 14.6389 7.66277 13.8249 8.22254ZM26.5775 8.39301C25.5736 8.62591 24.9312 9.57232 24.7988 10.5143C24.5716 11.5354 24.8673 12.7068 25.7114 13.3984C26.5163 14.0706 27.8414 14.0337 28.6135 13.3298C29.3381 12.5987 29.4768 11.5108 29.3445 10.5477C29.2204 9.89306 28.984 9.19885 28.4246 8.76823C27.9126 8.36577 27.2126 8.26737 26.5775 8.39301V8.39301Z" fill="#312280"/>
<path d="M33.521 0.0124821C36.6813 0.022992 39.841 0.023279 43.0001 0.0133433C43.0019 1.23479 43.0047 2.45538 42.9983 3.67684C41.1822 3.71991 39.3634 3.68649 37.5455 3.69352C37.5355 4.45982 37.4753 5.23486 37.5894 5.99586C39.399 5.98355 41.2078 5.99148 43.0175 5.99148C42.98 7.16372 43.0183 8.33772 42.9955 9.51085C41.1941 9.51789 39.3935 9.51438 37.5921 9.51262C37.4762 10.1348 37.5483 10.7684 37.5291 11.3966C37.5309 11.8483 37.5008 12.3044 37.5866 12.7526C39.3744 12.7411 41.1631 12.7288 42.9508 12.7552C43.0713 13.1005 42.9718 13.4933 43.001 13.8571C43.0366 14.6445 42.9171 15.4459 43.0941 16.2219C43.7411 15.6058 44.3033 14.9125 44.9403 14.2869C45.4732 13.6322 46.0883 13.0478 46.6468 12.4142C47.0137 12.0126 47.4435 11.6585 47.7492 11.2086C47.7051 11.123 47.6506 11.0428 47.5868 10.9696C46.6824 9.99327 45.7771 9.01844 44.8709 8.04509C44.2741 7.35179 43.5814 6.73577 43.0311 6.00727C44.2175 5.96951 45.4066 5.99938 46.5939 5.98973C47.0794 6.00024 47.5667 5.96424 48.0513 6.00727C48.9192 6.77091 49.5945 7.72436 50.4943 8.45988C51.124 7.7516 51.7875 7.07409 52.3998 6.35174C52.5549 6.19092 52.7074 5.94665 52.9729 5.98883C54.5161 6.00024 56.0602 5.96952 57.6034 6.00552C57.4041 6.30276 57.1725 6.57877 56.9126 6.82891C55.5838 8.27096 54.2259 9.68837 52.9246 11.1524C53.3964 11.858 54.0936 12.3975 54.6366 13.054C55.394 13.8193 56.1122 14.619 56.8514 15.4011C57.1471 15.7359 57.4784 16.0444 57.7184 16.4213C56.1688 16.4442 54.6174 16.4204 53.0669 16.431C52.8853 16.4213 52.6681 16.4609 52.5331 16.3133C51.7774 15.496 51.0364 14.6621 50.2516 13.8695C49.5726 14.6164 48.858 15.3326 48.2055 16.1023C48.0659 16.2517 47.9281 16.4653 47.6862 16.4283C41.6257 16.4328 35.5646 16.4298 29.5029 16.4196C29.4965 16.0681 29.4855 15.7157 29.5111 15.3651L29.5449 15.3167C29.5412 15.6717 29.5433 16.0271 29.5512 16.3827C30.8727 16.3835 32.1941 16.4073 33.5155 16.3669C33.4991 14.0953 33.5137 11.8228 33.5082 9.55127C33.5174 6.37195 33.4909 3.19177 33.521 0.0124821Z" fill="#FF5F00"/>
<path d="M59.6713 14.3036C60.3092 14.1199 61.0922 14.6858 60.9909 15.3502C61.1105 16.1595 60.0053 16.6516 59.3528 16.2421C58.5078 15.8598 58.7405 14.4371 59.6713 14.3036ZM59.6823 14.5188C59.3273 14.6217 58.9942 14.9723 59.0444 15.3502C58.996 15.9618 59.7982 16.3915 60.3348 16.1006C60.9006 15.8546 60.9681 14.9881 60.4635 14.6506C60.2344 14.503 59.9479 14.4925 59.6823 14.5188V14.5188Z" fill="#FF5F00"/>
<path d="M59.4795 14.6918C59.7633 14.7006 60.0744 14.6365 60.3354 14.7736C60.3319 15.1412 60.349 15.5088 60.3865 15.8746C60.3637 15.9239 60.319 16.0214 60.2962 16.0706C60.1465 15.8158 60.0863 15.4994 59.818 15.3281C59.7532 15.5565 59.6975 15.7885 59.6346 16.0179C59.3571 15.633 59.5461 15.1295 59.4795 14.6918ZM59.7541 14.9317C59.7578 15.0319 59.7623 15.1321 59.7669 15.2332C59.8609 15.2252 59.9558 15.2182 60.0507 15.2121C60.0626 15.1198 60.0744 15.0284 60.0872 14.937C59.9749 14.9353 59.8645 14.9335 59.7541 14.9317Z" fill="#FF5F00"/>
</svg>
