<svg width="82" height="11" viewBox="0 0 82 11" fill="none" xmlns="http://www.w3.org/2000/svg">
<path d="M14.4899 10.2501L16.6756 0H2.18576L0 10.2501H14.4899Z" fill="white"/>
<path fill-rule="evenodd" clip-rule="evenodd" d="M10.7745 2.14986C12.4574 2.54083 12.501 2.95336 12.501 2.95336C13.5937 2.95336 13.878 2.95336 14.0746 3.14879C14.7084 3.73519 13.6375 5.16845 13.6375 5.16845C13.5065 5.25531 1.44238 9.94596 1.44238 9.94596H14.1402L16.1727 0.412598H2.53512C2.53512 0.412598 10.5778 2.10637 10.7745 2.14986Z" fill="#333366"/>
<path fill-rule="evenodd" clip-rule="evenodd" d="M12.0203 3.53965C11.7368 3.6357 11.4437 3.70125 11.1461 3.7352C10.9712 3.75686 10.8838 3.75686 10.8838 3.80025C10.8838 3.86556 11.1241 3.84374 11.2117 3.84374C11.6051 3.84374 13.1568 3.7352 13.5283 3.80025C13.8124 3.84374 13.4845 4.40832 13.3971 4.75579C13.3753 4.88604 13.4627 4.82097 13.5065 4.75579C13.6959 4.45888 13.843 4.1373 13.9435 3.80025C13.9873 3.36601 13.6812 3.30085 13.1568 3.30085H12.3481C12.3251 3.29758 12.3017 3.30227 12.2818 3.31414C12.2619 3.32602 12.2467 3.34434 12.2388 3.36604C12.1733 3.43108 12.0641 3.49616 12.0203 3.53966L12.0203 3.53965Z" fill="#333366"/>
<path fill-rule="evenodd" clip-rule="evenodd" d="M6.99373 6.75381L0.502686 9.94602L2.07631 2.62775H8.6327C8.74194 2.62775 12.1513 2.62775 12.2171 3.3009H6.31616L7.23392 6.08056C8.28314 5.58103 10.8619 4.53873 12.4136 4.47342C13.0693 4.45174 13.3315 4.56028 13.2004 4.6473C13.113 4.69065 12.4792 4.77753 11.9765 4.90791C11.3551 5.04704 10.7422 5.22101 10.1406 5.42898C9.06747 5.81159 8.01685 6.2539 6.99374 6.75381H6.99373Z" fill="#333366"/>
<path fill-rule="evenodd" clip-rule="evenodd" d="M20.5874 10.1631C18.0523 10.1631 16.5442 9.16403 17.047 6.92739C17.8774 3.06194 18.4239 0.477844 18.4239 0.477844H20.5438C20.5438 0.477844 19.2544 6.42788 19.2979 6.29765C18.9702 7.77428 19.2979 8.66466 20.9153 8.66466C22.467 8.66466 23.2538 7.77427 23.5815 6.29765C23.7782 5.45065 24.8273 0.477844 24.8273 0.477844H26.9473C25.5267 6.92741 26.9473 0.477844 25.5485 6.92741C25.0239 9.14249 23.1008 10.1631 20.5874 10.1631V10.1631Z" fill="#333366"/>
<path fill-rule="evenodd" clip-rule="evenodd" d="M38.2684 6.36289C37.8074 6.35823 37.3474 6.32197 36.8915 6.25435L37.1538 4.88614C37.4161 4.90795 37.7656 4.95144 38.0935 4.95144C38.5724 4.98934 39.0485 4.85096 39.4314 4.56263C39.8142 4.27431 40.077 3.85617 40.1697 3.38781C40.3882 2.34538 39.8638 1.97623 39.0988 1.97623H37.3723L35.6676 9.98944H33.5476L35.5802 0.477905H40.1697C42.2459 0.477905 42.4864 2.28032 42.2241 3.47467C41.8306 5.25542 40.1477 6.36289 38.2683 6.36289H38.2684Z" fill="#333366"/>
<path fill-rule="evenodd" clip-rule="evenodd" d="M33.7879 1.99788H31.5367C30.3785 1.99788 29.8758 2.23681 29.7665 2.69283C29.4386 4.21298 33.5692 5.40733 33.1758 7.75265C32.9572 9.05554 31.8208 9.98942 29.1763 9.98942H25.9419L26.2696 8.46929H28.8485C29.6572 8.46929 30.6407 8.51279 30.8155 7.70915C31.1214 6.3412 27.0564 4.99466 27.3623 2.71453C27.559 1.34643 28.783 0.477753 31.2526 0.477753L34.0937 0.477889L33.7879 1.99788H33.7879Z" fill="#333366"/>
<path fill-rule="evenodd" clip-rule="evenodd" d="M49.5453 1.99788H47.2944C46.1359 1.99788 45.6333 2.23681 45.5239 2.69283C45.1962 4.21298 49.3268 5.40733 48.9333 7.75265C48.7148 9.05554 47.5783 9.98942 44.9339 9.98942H41.6992L42.0272 8.46929H44.6279C45.4366 8.46929 46.4201 8.51279 46.5948 7.70915C46.9009 6.3412 42.8357 4.99466 43.1418 2.71453C43.3384 1.34643 44.5624 0.477753 47.0321 0.477753L49.873 0.477889L49.5453 1.99788Z" fill="#333366"/>
<path fill-rule="evenodd" clip-rule="evenodd" d="M50.2665 8.29565C50.0979 8.29568 49.9331 8.34537 49.793 8.43844C49.6528 8.53152 49.5436 8.66379 49.4791 8.81854C49.4147 8.97329 49.3978 9.14356 49.4307 9.30783C49.4636 9.4721 49.5448 9.62299 49.664 9.74141C49.7832 9.85984 49.9351 9.94048 50.1004 9.97314C50.2657 10.0058 50.4371 9.98902 50.5928 9.92492C50.7485 9.86081 50.8816 9.75226 50.9753 9.613C51.0689 9.47373 51.1189 9.31 51.1189 9.14251C51.1186 8.91796 51.0287 8.7027 50.8689 8.54394C50.7091 8.38518 50.4924 8.29589 50.2665 8.29565Z" fill="#333366"/>
<path fill-rule="evenodd" clip-rule="evenodd" d="M82.0001 0.43454L79.9236 9.96763H78.1534L79.7273 2.88843L75.5093 9.96763H73.6953L72.6899 3.34426L71.2257 9.96763H69.4773L71.5095 0.43454H74.0447L75.1157 7.44855L79.2244 0.43454H82.0001Z" fill="#333366"/>
<path fill-rule="evenodd" clip-rule="evenodd" d="M55.8613 10.1631C54.7156 10.213 53.5834 9.90133 52.6269 9.27262C52.1886 8.94192 51.8381 8.50999 51.6058 8.01428C51.3735 7.51857 51.2664 6.97403 51.2937 6.42788C51.2945 6.00356 51.3458 5.58082 51.4466 5.1685C52.146 1.75904 55.009 0.238922 57.9157 0.238922C58.6348 0.245585 59.3518 0.318267 60.0575 0.456042L60.2106 0.477851L59.861 2.01965L59.7298 1.99784C59.2489 1.95449 58.921 1.91111 58.484 1.91111C58.0897 1.91175 57.6957 1.93347 57.3037 1.97618C56.618 2.03107 55.9605 2.27139 55.4024 2.6711C54.815 3.03724 54.3279 3.54219 53.9847 4.1409C53.6415 4.7396 53.4528 5.41342 53.4354 6.10223C53.4165 6.464 53.4958 6.82418 53.665 7.14508C53.8342 7.46598 54.087 7.73581 54.3971 7.92634C55.1381 8.35653 55.9873 8.56749 56.8448 8.53442C57.3271 8.53862 57.809 8.50963 58.2873 8.44767L58.5059 8.42588L58.178 9.92431L58.0688 9.94612C57.341 10.0838 56.6022 10.1564 55.8613 10.1631H55.8613Z" fill="#333366"/>
<path fill-rule="evenodd" clip-rule="evenodd" d="M65.5213 0.412598C62.5927 0.412598 60.1668 1.93274 59.4675 5.25531C58.8992 7.92629 60.5385 10.1197 63.4451 10.1197C66.3956 10.1197 68.7558 8.66474 69.4989 5.25531C70.0672 2.47565 68.4062 0.412598 65.5213 0.412598ZM67.532 5.27699C67.073 7.66569 65.6306 8.68645 63.8167 8.68645C62.0245 8.68645 61.041 7.14451 61.3689 5.27701C61.8059 2.93157 63.2921 1.88928 65.0841 1.88928C66.8763 1.86759 67.9035 3.32254 67.532 5.27701V5.27699Z" fill="#333366"/>
</svg>
