<svg width="24" height="24" viewBox="0 0 24 24" fill="none" xmlns="http://www.w3.org/2000/svg">
<g clip-path="url(#clip0_0_40)">
<path d="M19 15.4297C18.24 15.4297 17.56 15.7159 17.04 16.1642L9.91 12.2058C9.96 11.9864 10 11.7671 10 11.5382C10 11.3092 9.96 11.0899 9.91 10.8705L16.96 6.9503C17.5 7.42721 18.21 7.72289 19 7.72289C20.66 7.72289 22 6.44478 22 4.86145C22 3.27811 20.66 2 19 2C17.34 2 16 3.27811 16 4.86145C16 5.09036 16.04 5.30974 16.09 5.52912L9.04 9.4493C8.5 8.97239 7.79 8.67671 7 8.67671C5.34 8.67671 4 9.95482 4 11.5382C4 13.1215 5.34 14.3996 7 14.3996C7.79 14.3996 8.5 14.1039 9.04 13.627L16.16 17.5949C16.11 17.7952 16.08 18.005 16.08 18.2149C16.08 19.7505 17.39 21 19 21C20.61 21 21.92 19.7505 21.92 18.2149C21.92 16.6792 20.61 15.4297 19 15.4297Z" fill="#333333"/>
</g>
<defs>
<clipPath id="clip0_0_40">
<rect width="24" height="24" fill="white"/>
</clipPath>
</defs>
</svg>
