<svg width="76" height="38" viewBox="0 0 76 38" fill="none" xmlns="http://www.w3.org/2000/svg">
<rect width="76" height="38" fill="white"/>
<path fill-rule="evenodd" clip-rule="evenodd" d="M42.608 11.5C41.035 11.5 39.5254 12.2322 38.54 13.3894C37.5546 12.2322 36.045 11.5 34.472 11.5C31.6877 11.5 29.5 13.6877 29.5 16.472C29.5 19.8891 32.5736 22.6734 37.2292 26.9042L38.54 28.0884L39.8508 26.8951C44.5064 22.6734 47.58 19.8891 47.58 16.472C47.58 13.6877 45.3923 11.5 42.608 11.5ZM38.6304 25.5571L38.54 25.6475L38.4496 25.5571C34.1466 21.6609 31.308 19.0845 31.308 16.4719C31.308 14.6639 32.664 13.3079 34.472 13.3079C35.8642 13.3079 37.2202 14.2029 37.6993 15.4413H39.3898C39.8599 14.2029 41.2159 13.3079 42.608 13.3079C44.416 13.3079 45.772 14.6639 45.772 16.4719C45.772 19.0845 42.9335 21.6609 38.6304 25.5571Z" fill="#BDBDBD"/>
</svg>
