<svg width="14" height="14" viewBox="0 0 14 14" fill="none" xmlns="http://www.w3.org/2000/svg">
<path fill-rule="evenodd" clip-rule="evenodd" d="M13.7433 12.5743L9.91027 8.73971C10.5973 7.8026 10.9654 6.66965 10.9603 5.50765C10.9472 2.47445 8.49387 0.0175747 5.46069 5.57188e-05C4.00914 -0.00651169 2.61526 0.567722 1.58956 1.59483C0.563855 2.62195 -0.00846508 4.01662 9.46519e-05 5.46815C0.0132046 8.50162 2.46674 10.9587 5.50019 10.9762C6.66692 10.9813 7.80401 10.6089 8.74175 9.91473L8.74575 9.91173L12.5753 13.7433C12.7824 13.9605 13.0909 14.0484 13.3813 13.973C13.6718 13.8976 13.8985 13.6706 13.9737 13.3801C14.0489 13.0896 13.9607 12.7811 13.7433 12.5743ZM5.49619 9.87823C3.06956 9.86427 1.10677 7.8988 1.09611 5.47215C1.08956 4.31107 1.54746 3.19556 2.36787 2.37393C3.18827 1.5523 4.3031 1.09275 5.46419 1.09757C7.89082 1.11153 9.85361 3.07701 9.86427 5.50365C9.87082 6.66473 9.41292 7.78024 8.59251 8.60187C7.77211 9.4235 6.65728 9.88305 5.49619 9.87823Z" fill="#8E8E93"/>
</svg>
