<svg width="71" height="16" viewBox="0 0 71 16" fill="none" xmlns="http://www.w3.org/2000/svg">
<path d="M70.9998 0V16H0V0H70.9998Z" fill="#FFCC00"/>
<path d="M12.4859 2.87332L10.2175 6.02035H22.5805C23.2054 6.02035 23.1972 6.26281 22.8918 6.68531C22.5816 7.11434 22.0625 7.86023 21.7465 8.29575C21.5862 8.51693 21.2963 8.91968 22.2569 8.91968H27.3127C27.3127 8.91968 28.1276 7.78735 28.8106 6.84072C29.74 5.55304 28.8911 2.87332 25.569 2.87332H12.4859Z" fill="#BF190E"/>
<path d="M9.29956 13.1258L13.8558 6.80414C13.8558 6.80414 18.9067 6.80419 19.5099 6.80419C20.1347 6.80419 20.1266 7.04665 19.8212 7.4692C19.511 7.89825 18.9832 8.63619 18.6673 9.07192C18.5069 9.29297 18.2171 9.69646 19.1776 9.69646H26.7521C26.1223 10.5777 24.079 13.1258 20.4099 13.1258H9.29956Z" fill="#BF190E"/>
<path d="M35.3931 9.69568L32.9224 13.1258H26.4048C26.4048 13.1258 28.8742 9.69642 28.8764 9.69642L35.3931 9.69568Z" fill="#BF190E"/>
<path d="M45.3782 8.91969H29.4365L33.7959 2.87329H40.3115L37.8129 6.34043H40.7214L43.221 2.87329H49.736L45.3782 8.91969Z" fill="#BF190E"/>
<path d="M44.8182 9.69647L42.3463 13.1258H35.8311C35.8311 13.1258 38.3005 9.69647 38.3028 9.69647H44.8182Z" fill="#BF190E"/>
<path d="M0 11.0488H9.60134L9.07673 11.7774H0V11.0488Z" fill="#BF190E"/>
<path d="M0 9.69638H10.5768L10.0513 10.424H0V9.69638Z" fill="#BF190E"/>
<path d="M0 12.4019H8.62638L8.10439 13.1258H0V12.4019Z" fill="#BF190E"/>
<path d="M70.9999 11.7774H61.4353L61.9602 11.0488H70.9999V11.7774Z" fill="#BF190E"/>
<path d="M70.9999 13.1258L60.4629 13.1267L60.9849 12.4019H70.9999V13.1258Z" fill="#BF190E"/>
<path d="M62.9345 9.69638H71.0001V10.4244L62.4104 10.4249L62.9345 9.69638Z" fill="#BF190E"/>
<path d="M58.7595 2.87332L54.4007 8.91968H47.4968C47.4968 8.91968 51.8564 2.87332 51.8586 2.87332H58.7595Z" fill="#BF190E"/>
<path d="M46.9378 9.69647C46.9378 9.69647 46.4616 10.3611 46.2302 10.6806C45.4118 11.8099 46.1353 13.1258 48.8061 13.1258H59.2699L61.7416 9.69647H46.9378Z" fill="#BF190E"/>
</svg>
